<svg width="252" height="208" xmlns="http://www.w3.org/2000/svg" xmlns:xlink="http://www.w3.org/1999/xlink" xmlns:svgjs="http://svgjs.com/svgjs" viewBox="54 2480 252 208"><svg width="53" height="14" xmlns="http://www.w3.org/2000/svg" xmlns:xlink="http://www.w3.org/1999/xlink" xmlns:svgjs="http://svgjs.com/svgjs" viewBox="0 0.514 53 12.972" fill="#e6e6e6" x="253" y="2674"><svg xmlns="http://www.w3.org/2000/svg" xmlns:xlink="http://www.w3.org/1999/xlink" width="53" height="14" viewBox="0.82 0.841 51.58 12.625"><path paint-order="stroke fill markers" fill-rule="evenodd" d="M52.4 7.153c.076 8.044-50.615 8.781-51.58 0-.078-8.043 50.614-8.78 51.58 0z"/></svg></svg><svg width="10" height="11" xmlns="http://www.w3.org/2000/svg" xmlns:xlink="http://www.w3.org/1999/xlink" xmlns:svgjs="http://svgjs.com/svgjs" viewBox="0.6 0 8.8 11" fill="#9f616a" x="261" y="2653"><svg xmlns="http://www.w3.org/2000/svg" xmlns:xlink="http://www.w3.org/1999/xlink" width="10" height="11" viewBox="0.972 0.227 8.22 10.274"><path paint-order="stroke fill markers" fill-rule="evenodd" d="M4.739.227L.972 2.282l2.397 7.877 3.767.342L9.191 6.05 4.74.227z"/></svg></svg><svg width="7" height="5" xmlns="http://www.w3.org/2000/svg" xmlns:xlink="http://www.w3.org/1999/xlink" xmlns:svgjs="http://svgjs.com/svgjs" viewBox="0 0.235 7 4.529" fill="#9f616a" x="277" y="2668"><svg xmlns="http://www.w3.org/2000/svg" xmlns:xlink="http://www.w3.org/1999/xlink" width="7" height="5" viewBox="0.383 0.981 5.822 3.767"><path paint-order="stroke fill markers" fill-rule="evenodd" d="M.383.98v3.768l5.822-.342-.08-3.103L.382.98z"/></svg></svg><svg width="20" height="64" xmlns="http://www.w3.org/2000/svg" xmlns:xlink="http://www.w3.org/1999/xlink" xmlns:svgjs="http://svgjs.com/svgjs" viewBox="0.487 0 19.027 64" fill="#2f2e41" x="264" y="2608"><svg xmlns="http://www.w3.org/2000/svg" xmlns:xlink="http://www.w3.org/1999/xlink" width="20" height="64" viewBox="0.369 0.019 18.836 63.359"><path paint-order="stroke fill markers" fill-rule="evenodd" d="M.37.02l2.054 25.685 6.507 37.673 10.274-1.37-3.424-29.796 1.37-27.398L.369.019z"/></svg></svg><svg width="35" height="76" xmlns="http://www.w3.org/2000/svg" xmlns:xlink="http://www.w3.org/1999/xlink" xmlns:svgjs="http://svgjs.com/svgjs" viewBox="0.264 0 34.472 76" fill="#2f2e41" x="264" y="2588"><svg xmlns="http://www.w3.org/2000/svg" xmlns:xlink="http://www.w3.org/1999/xlink" width="35" height="76" viewBox="0.369 0.84 33.864 74.661"><path paint-order="stroke fill markers" fill-rule="evenodd" d="M27.767.84L3.11 1.183.369 20.019l16.781 7.877 4.11 15.07L.37 65.225l8.22 10.275s11.644-15.754 20.206-24.658c8.562-8.905 4.452-35.961 4.452-35.961L27.767.84z"/></svg></svg><svg width="16" height="16" xmlns="http://www.w3.org/2000/svg" xmlns:xlink="http://www.w3.org/1999/xlink" xmlns:svgjs="http://svgjs.com/svgjs" fill="#9f616a" x="269" y="2525"><svg xmlns="http://www.w3.org/2000/svg" xmlns:xlink="http://www.w3.org/1999/xlink" width="16" height="16" viewBox="0.506 0.139 15.069 15.069"><path paint-order="stroke fill markers" fill-rule="evenodd" d="M8.04 15.208A7.528 7.528 0 0 1 .507 7.673 7.528 7.528 0 0 1 8.041.14a7.528 7.528 0 0 1 7.535 7.534 7.528 7.528 0 0 1-7.535 7.535z"/></svg></svg><svg width="12" height="20" xmlns="http://www.w3.org/2000/svg" xmlns:xlink="http://www.w3.org/1999/xlink" xmlns:svgjs="http://svgjs.com/svgjs" viewBox="0 0.033 12 19.934" fill="#9f616a" x="274" y="2534"><svg xmlns="http://www.w3.org/2000/svg" xmlns:xlink="http://www.w3.org/1999/xlink" width="12" height="20" viewBox="0.301 0.386 11.546 19.179"><path paint-order="stroke fill markers" fill-rule="evenodd" d="M.301 3.81v7.535l5.137 8.22s7.877-5.822 6.165-7.192C9.89 11.003 9.548.386 9.548.386L.301 3.81z"/></svg></svg><svg width="22" height="51" xmlns="http://www.w3.org/2000/svg" xmlns:xlink="http://www.w3.org/1999/xlink" xmlns:svgjs="http://svgjs.com/svgjs" viewBox="0.442 0 21.116 51" fill="#d0cde1" x="269" y="2542"><svg xmlns="http://www.w3.org/2000/svg" xmlns:xlink="http://www.w3.org/1999/xlink" width="22" height="51" viewBox="0.164 0.492 20.891 50.458"><path paint-order="stroke fill markers" fill-rule="evenodd" d="M5.301 1.975L.164 8.14l2.055 42.81 16.096-.343 2.74-37.33-3.425-9.59L15.281.493 11.123 6.77 5.301 1.975z"/></svg></svg><svg width="13" height="54" xmlns="http://www.w3.org/2000/svg" xmlns:xlink="http://www.w3.org/1999/xlink" xmlns:svgjs="http://svgjs.com/svgjs" viewBox="0.5 0 12 54" fill="#2f2e41" x="254" y="2550"><svg xmlns="http://www.w3.org/2000/svg" xmlns:xlink="http://www.w3.org/1999/xlink" width="13" height="54" viewBox="0.437 0.825 11.645 52.4"><path paint-order="stroke fill markers" fill-rule="evenodd" d="M12.082 16.237L8.314 30.62l3.768 14.384-6.165 8.22-5.48-26.029S4.547 5.962 4.889 3.565C5.232 1.167 5.917.825 5.917.825l2.74.342 3.425 15.07z"/></svg></svg><svg width="12" height="51" xmlns="http://www.w3.org/2000/svg" xmlns:xlink="http://www.w3.org/1999/xlink" xmlns:svgjs="http://svgjs.com/svgjs" viewBox="0.156 0 11.688 51" fill="#2f2e41" x="293" y="2550"><svg xmlns="http://www.w3.org/2000/svg" xmlns:xlink="http://www.w3.org/1999/xlink" width="12" height="51" viewBox="0.48 0.825 11.302 49.318"><path paint-order="stroke fill markers" fill-rule="evenodd" d="M.48 21.716l2.397 4.453.685 7.534-1.37 8.562 4.795 7.877 4.795-21.576L6.644.825H4.59L.48 21.716z"/></svg></svg><svg width="13" height="29" xmlns="http://www.w3.org/2000/svg" xmlns:xlink="http://www.w3.org/1999/xlink" xmlns:svgjs="http://svgjs.com/svgjs" viewBox="0.227 0 12.546 29" fill="#2f2e41" x="257" y="2652"><svg xmlns="http://www.w3.org/2000/svg" xmlns:xlink="http://www.w3.org/1999/xlink" width="13" height="29" viewBox="0.299 0.884 11.865 27.425"><path paint-order="stroke fill markers" fill-rule="evenodd" d="M7.37.884S2.573 2.254.861 2.597c-1.712.342 1.027 6.85 1.027 6.85s1.713 8.904 2.055 10.616c.343 1.713 2.74 7.535 5.823 8.22 3.082.685 1.027-11.987 1.027-11.987s1.37-4.11 1.37-5.48-2.055-.685-2.055-.685C4.629 9.446 7.369.884 7.369.884z"/></svg></svg><svg width="11" height="12" xmlns="http://www.w3.org/2000/svg" xmlns:xlink="http://www.w3.org/1999/xlink" xmlns:svgjs="http://svgjs.com/svgjs" viewBox="0.379 0 10.242 12" fill="#2f2e41" x="275" y="2671"><svg xmlns="http://www.w3.org/2000/svg" xmlns:xlink="http://www.w3.org/1999/xlink" width="11" height="12" viewBox="0.626 0.001 9.445 11.066"><path paint-order="stroke fill markers" fill-rule="evenodd" d="M.67 8.255c.343 2.055-.341 2.055 5.138 2.74 5.48.685 4.11-3.767 4.11-3.767-.23-2.099-.689-4.166-1.37-6.165-1.027-2.74-6.507.685-6.507.685S.329 6.2.67 8.255z"/></svg></svg><svg width="19" height="18" xmlns="http://www.w3.org/2000/svg" xmlns:xlink="http://www.w3.org/1999/xlink" xmlns:svgjs="http://svgjs.com/svgjs" viewBox="0 0.28 19 17.44" fill="#2f2e41" x="268" y="2520"><svg xmlns="http://www.w3.org/2000/svg" xmlns:xlink="http://www.w3.org/1999/xlink" width="19" height="18" viewBox="0.136 0.997 18.166 16.674"><path paint-order="stroke fill markers" fill-rule="evenodd" d="M15.557 14.625l.178 3.046s2.21-4.998 2.553-10.135c.342-5.137-5.48-6.164-8.905-6.507C5.96.687.136 3.084.136 5.824c0 2.74 6.165 2.055 8.562 1.37 2.398-.685 3.425 5.137 3.425 5.137l1.37.342 2.064 1.952z"/></svg></svg><svg width="9" height="10" xmlns="http://www.w3.org/2000/svg" xmlns:xlink="http://www.w3.org/1999/xlink" xmlns:svgjs="http://svgjs.com/svgjs" viewBox="0.096 0 8.809 10" fill="#d0cde1" x="272" y="2543"><svg xmlns="http://www.w3.org/2000/svg" xmlns:xlink="http://www.w3.org/1999/xlink" width="9" height="10" viewBox="0.279 0.975 7.844 8.904"><path paint-order="stroke fill markers" fill-rule="evenodd" d="M.28 3.4L2.3.976 8.123 5.77 2.301 9.88.279 3.4z"/></svg></svg><svg width="7" height="11" xmlns="http://www.w3.org/2000/svg" xmlns:xlink="http://www.w3.org/1999/xlink" xmlns:svgjs="http://svgjs.com/svgjs" viewBox="0 0.158 7 10.684" fill="#d0cde1" x="280" y="2542"><svg xmlns="http://www.w3.org/2000/svg" xmlns:xlink="http://www.w3.org/1999/xlink" width="7" height="11" viewBox="0.123 0.605 6.507 9.932"><path paint-order="stroke fill markers" fill-rule="evenodd" d="M6.63 3.688L4.233.605.123 6.77l5.137 3.767 1.37-6.85z"/></svg></svg><svg width="42" height="64" xmlns="http://www.w3.org/2000/svg" xmlns:xlink="http://www.w3.org/1999/xlink" xmlns:svgjs="http://svgjs.com/svgjs" viewBox="0.399 0 41.202 64" fill="#2f2e41" x="260" y="2543"><svg xmlns="http://www.w3.org/2000/svg" xmlns:xlink="http://www.w3.org/1999/xlink" width="42" height="64" viewBox="0.259 0.461 40.902 63.535"><path paint-order="stroke fill markers" fill-rule="evenodd" d="M5.054 28.031l1.37 13.014-2.74 7.878-1.712 7.534s0 7.192 6.85 7.535c6.849.343 12.671-21.576 12.671-21.576s1.028 4.794 1.712 7.534c.685 2.74 12.33 13.7 12.33 13.7s2.74-.343 5.137-5.823c2.397-5.48-4.795-10.617-4.795-10.617l-2.055-7.192.685-8.904 4.795-23.289L25.09.461l1.541 19.693-5.137 15.412-7.706-34.077-2.568 1.884L.259 7.825l4.795 20.206z"/></svg></svg><svg width="129" height="128" xmlns="http://www.w3.org/2000/svg" xmlns:xlink="http://www.w3.org/1999/xlink" xmlns:svgjs="http://svgjs.com/svgjs" viewBox="0.486 0 128.028 128" fill="#d0cde1" x="65" y="2495"><svg xmlns="http://www.w3.org/2000/svg" xmlns:xlink="http://www.w3.org/1999/xlink" width="129" height="128" viewBox="0.877 0.267 127.593 127.565"><path paint-order="stroke fill markers" fill-rule="evenodd" d="M64.702 127.832c-.677-.005-1.362-.01-2.035-.03l.021-.68a63.226 63.226 0 0 0 4.046-.002l.022.679c-.685.022-1.376.033-2.054.033zm-6.114-.287a64.438 64.438 0 0 1-4.056-.514l.107-.67c1.326.21 2.676.382 4.012.509l-.063.675zm12.247-.007l-.064-.675a63.291 63.291 0 0 0 4.011-.515l.108.67c-1.34.216-2.704.39-4.054.52zm-20.317-1.282a63.907 63.907 0 0 1-3.956-1.032l.192-.65c1.288.38 2.605.723 3.914 1.02l-.15.662zm28.385-.017l-.15-.661a63.17 63.17 0 0 0 3.912-1.026l.193.65a63.47 63.47 0 0 1-3.955 1.037zm-36.223-2.3a63.755 63.755 0 0 1-3.796-1.534l.275-.62a63.126 63.126 0 0 0 3.755 1.518l-.234.637zm44.058-.026l-.234-.637a62.696 62.696 0 0 0 3.742-1.518l.275.62a63.407 63.407 0 0 1-3.783 1.535zm-51.542-3.285a64.23 64.23 0 0 1-3.565-2.009l.352-.58a63.318 63.318 0 0 0 3.527 1.988l-.314.601zm59.003-.025l-.314-.601a63.12 63.12 0 0 0 3.519-1.987l.352.58a63.559 63.559 0 0 1-3.557 2.008zm-65.996-4.216a64.528 64.528 0 0 1-3.278-2.447l.423-.531a63.513 63.513 0 0 0 3.243 2.42l-.388.558zm72.976-.025l-.39-.556c1.101-.769 2.19-1.583 3.24-2.42l.423.53a64.275 64.275 0 0 1-3.273 2.446zm-79.369-5.074a64.69 64.69 0 0 1-2.938-2.843l.487-.473c.934.964 1.912 1.91 2.908 2.814l-.457.502zm85.753-.023l-.456-.503a63.696 63.696 0 0 0 2.906-2.814l.487.472a64.456 64.456 0 0 1-2.937 2.845zm-91.442-5.843a64.958 64.958 0 0 1-2.553-3.193l.544-.407a63.83 63.83 0 0 0 2.525 3.159l-.516.44zm97.13-.029l-.517-.44a63.71 63.71 0 0 0 2.525-3.162l.544.406a64.39 64.39 0 0 1-2.553 3.196zM11.224 98.881a64.392 64.392 0 0 1-2.123-3.49l.59-.334a63.526 63.526 0 0 0 2.102 3.453l-.569.371zm106.922-.037l-.569-.37a63.614 63.614 0 0 0 2.102-3.46l.591.333a64.084 64.084 0 0 1-2.125 3.497zm-110.94-7.07a63.6 63.6 0 0 1-1.659-3.733l.629-.255a63.103 63.103 0 0 0 1.64 3.691l-.61.296zm114.96-.054l-.611-.295a62.899 62.899 0 0 0 1.64-3.702l.63.254a63.325 63.325 0 0 1-1.66 3.743zM4.132 84.206a63.434 63.434 0 0 1-1.166-3.919l.656-.172a62.6 62.6 0 0 0 1.154 3.877l-.644.214zm121.108-.072l-.644-.213a62.949 62.949 0 0 0 1.148-3.879l.657.172a63.764 63.764 0 0 1-1.162 3.92zM2.055 76.302a63.88 63.88 0 0 1-.652-4.036l.673-.087a63.19 63.19 0 0 0 .645 3.993l-.666.13zm125.252-.075l-.666-.129c.254-1.317.47-2.66.64-3.993l.673.086a64.14 64.14 0 0 1-.648 4.036zM1.01 68.197a64.96 64.96 0 0 1-.133-4.087h.679c.001 1.345.046 2.705.132 4.043l-.678.044zm127.332-.076l-.678-.043c.085-1.337.128-2.697.128-4.043v-.148h.678v.146c0 1.362-.043 2.737-.128 4.088zM1.679 60.067L1 60.025c.084-1.355.213-2.725.383-4.07l.673.085a63.551 63.551 0 0 0-.378 4.027zm125.976-.223a63.925 63.925 0 0 0-.393-4.025l.673-.088a64.58 64.58 0 0 1 .398 4.069l-.678.044zM2.693 52.046l-.667-.129c.256-1.331.56-2.673.901-3.987l.657.17a63.03 63.03 0 0 0-.891 3.946zm123.918-.22a63.331 63.331 0 0 0-.905-3.941l.656-.173c.346 1.311.654 2.652.916 3.984l-.667.13zM4.73 44.222l-.645-.213c.426-1.29.9-2.583 1.41-3.845l.63.254a62.656 62.656 0 0 0-1.395 3.804zm119.82-.212c-.426-1.274-.899-2.55-1.406-3.793l.629-.256c.512 1.256.99 2.546 1.42 3.834l-.643.215zM7.76 36.712l-.61-.294a64.059 64.059 0 0 1 1.891-3.63l.592.334a63.274 63.274 0 0 0-1.872 3.59zm113.74-.185a63.31 63.31 0 0 0-1.88-3.577l.59-.335a63.588 63.588 0 0 1 1.9 3.616l-.61.296zM11.729 29.66l-.569-.37a64.282 64.282 0 0 1 2.34-3.356l.544.406a63.617 63.617 0 0 0-2.315 3.32zm105.785-.16a63.265 63.265 0 0 0-2.323-3.31l.543-.407a64.235 64.235 0 0 1 2.348 3.346l-.568.372zM16.566 23.175l-.517-.44a64.432 64.432 0 0 1 2.746-3.03l.488.473a63.847 63.847 0 0 0-2.717 2.997zm96.097-.14a63.953 63.953 0 0 0-2.726-2.989l.486-.472c.947.973 1.873 1.989 2.755 3.02l-.515.441zM22.186 17.36l-.457-.502a64.26 64.26 0 0 1 3.108-2.655l.424.53a63.639 63.639 0 0 0-3.075 2.626zm84.84-.123a63.888 63.888 0 0 0-3.085-2.62l.423-.53a64.486 64.486 0 0 1 3.117 2.646l-.455.504zm-78.529-4.929l-.39-.556a63.908 63.908 0 0 1 3.42-2.237l.354.58a63.8 63.8 0 0 0-3.384 2.213zm72.198-.108a63.684 63.684 0 0 0-3.394-2.206l.351-.58a64.246 64.246 0 0 1 3.431 2.229l-.388.557zM35.397 8.103l-.315-.601a63.95 63.95 0 0 1 3.676-1.78l.276.62a62.984 62.984 0 0 0-3.637 1.761zm58.374-.093a63.156 63.156 0 0 0-3.65-1.753l.274-.62a63.784 63.784 0 0 1 3.69 1.77l-.314.603zM42.774 4.82l-.235-.637a63.431 63.431 0 0 1 3.878-1.294l.194.65a62.743 62.743 0 0 0-3.837 1.28zm43.59-.077a62.99 62.99 0 0 0-3.841-1.267l.191-.65c1.301.382 2.608.813 3.883 1.28l-.233.637zM50.522 2.51l-.151-.662a63.86 63.86 0 0 1 4.012-.783l.109.67a63.035 63.035 0 0 0-3.97.775zm28.085-.05a63.317 63.317 0 0 0-3.972-.76l.106-.671c1.342.212 2.693.472 4.015.77l-.149.662zM58.503 1.216L58.437.54c1.348-.131 2.72-.22 4.08-.266l.022.679a63.96 63.96 0 0 0-4.036.262zm12.119-.02a64.14 64.14 0 0 0-4.037-.25l.02-.678c1.358.041 2.73.125 4.08.251l-.063.676z"/></svg></svg><svg width="33" height="33" xmlns="http://www.w3.org/2000/svg" xmlns:xlink="http://www.w3.org/1999/xlink" xmlns:svgjs="http://svgjs.com/svgjs" viewBox="0 0.5 33 32" fill="#034274" x="111" y="2480"><svg xmlns="http://www.w3.org/2000/svg" xmlns:xlink="http://www.w3.org/1999/xlink" width="33" height="33" viewBox="0 1 33 32"><path paint-order="stroke fill markers" fill-rule="evenodd" d="M16.5 33C7.375 33 0 25.848 0 17 0 8.152 7.375 1 16.5 1 25.624 1 33 8.152 33 17c0 8.848-7.376 16-16.5 16z"/></svg></svg><svg width="31" height="33" xmlns="http://www.w3.org/2000/svg" xmlns:xlink="http://www.w3.org/1999/xlink" xmlns:svgjs="http://svgjs.com/svgjs" viewBox="0 0.5 31 32" fill="#034274" x="174" y="2523"><svg xmlns="http://www.w3.org/2000/svg" xmlns:xlink="http://www.w3.org/1999/xlink" width="31" height="33" viewBox="0 1 31 32"><path paint-order="stroke fill markers" fill-rule="evenodd" d="M15.5 33C6.928 33 0 25.848 0 17 0 8.152 6.928 1 15.5 1 24.07 1 31 8.152 31 17c0 8.848-6.929 16-15.5 16z"/></svg></svg><svg width="32" height="33" xmlns="http://www.w3.org/2000/svg" xmlns:xlink="http://www.w3.org/1999/xlink" xmlns:svgjs="http://svgjs.com/svgjs" viewBox="0 0.5 32 32" fill="#034274" x="154" y="2590"><svg xmlns="http://www.w3.org/2000/svg" xmlns:xlink="http://www.w3.org/1999/xlink" width="32" height="33" viewBox="0 1 32 32"><path paint-order="stroke fill markers" fill-rule="evenodd" d="M16 33C7.152 33 0 25.848 0 17 0 8.152 7.152 1 16 1c8.848 0 16 7.152 16 16 0 8.848-7.152 16-16 16z"/></svg></svg><svg width="31" height="33" xmlns="http://www.w3.org/2000/svg" xmlns:xlink="http://www.w3.org/1999/xlink" xmlns:svgjs="http://svgjs.com/svgjs" viewBox="0 0.5 31 32" fill="#034274" x="77" y="2593"><svg xmlns="http://www.w3.org/2000/svg" xmlns:xlink="http://www.w3.org/1999/xlink" width="31" height="33" viewBox="0 1 31 32"><path paint-order="stroke fill markers" fill-rule="evenodd" d="M15.5 33C6.928 33 0 25.848 0 17 0 8.152 6.928 1 15.5 1 24.07 1 31 8.152 31 17c0 8.848-6.929 16-15.5 16z"/></svg></svg><svg width="32" height="33" xmlns="http://www.w3.org/2000/svg" xmlns:xlink="http://www.w3.org/1999/xlink" xmlns:svgjs="http://svgjs.com/svgjs" viewBox="0 0.5 32 32" fill="#034274" x="54" y="2523"><svg xmlns="http://www.w3.org/2000/svg" xmlns:xlink="http://www.w3.org/1999/xlink" width="32" height="33" viewBox="0 1 32 32"><path paint-order="stroke fill markers" fill-rule="evenodd" d="M16 33C7.152 33 0 25.848 0 17 0 8.152 7.152 1 16 1c8.848 0 16 7.152 16 16 0 8.848-7.152 16-16 16z"/></svg></svg><svg width="15" height="18" xmlns="http://www.w3.org/2000/svg" xmlns:xlink="http://www.w3.org/1999/xlink" xmlns:svgjs="http://svgjs.com/svgjs" viewBox="0.429 0 14.143 18" fill="#fff" x="120" y="2488"><svg xmlns="http://www.w3.org/2000/svg" xmlns:xlink="http://www.w3.org/1999/xlink" width="15" height="18" viewBox="0.305 0.034 13.987 17.802"><path paint-order="stroke fill markers" fill-rule="evenodd" d="M14.133 7.664H8.57a1.907 1.907 0 0 1-1.908-1.908V.193a.159.159 0 0 0-.159-.159H2.848A2.543 2.543 0 0 0 .305 2.578v12.715a2.543 2.543 0 0 0 2.543 2.543h8.9a2.543 2.543 0 0 0 2.544-2.543v-7.47a.159.159 0 0 0-.16-.159zm-3.656 6.358H4.12a.636.636 0 0 1 0-1.272h6.358a.636.636 0 1 1 0 1.272zm0-3.179H4.12a.636.636 0 0 1 0-1.272h6.358a.636.636 0 0 1 0 1.272z"/></svg></svg><svg width="7" height="7" xmlns="http://www.w3.org/2000/svg" xmlns:xlink="http://www.w3.org/1999/xlink" xmlns:svgjs="http://svgjs.com/svgjs" fill="#fff" x="127" y="2488"><svg xmlns="http://www.w3.org/2000/svg" xmlns:xlink="http://www.w3.org/1999/xlink" width="7" height="7" viewBox="0.934 0.519 5.873 5.873"><path paint-order="stroke fill markers" fill-rule="evenodd" d="M6.784 6.257L1.07.543a.08.08 0 0 0-.136.056v5.158c0 .35.285.636.636.636h5.158a.08.08 0 0 0 .056-.136z"/></svg></svg><svg width="2" height="3" xmlns="http://www.w3.org/2000/svg" xmlns:xlink="http://www.w3.org/1999/xlink" xmlns:svgjs="http://svgjs.com/svgjs" viewBox="0 0.5 2 2" fill="#fff" x="171" y="2603"><svg xmlns="http://www.w3.org/2000/svg" xmlns:xlink="http://www.w3.org/1999/xlink" width="2" height="3" viewBox="0.178 0.741 1.691 1.691"><path paint-order="stroke fill markers" fill-rule="evenodd" d="M1.023.741a.845.845 0 1 0 .001 1.69.845.845 0 0 0 0-1.69z"/></svg></svg><svg width="15" height="15" xmlns="http://www.w3.org/2000/svg" xmlns:xlink="http://www.w3.org/1999/xlink" xmlns:svgjs="http://svgjs.com/svgjs" fill="#fff" x="162" y="2599"><svg xmlns="http://www.w3.org/2000/svg" xmlns:xlink="http://www.w3.org/1999/xlink" width="15" height="15" viewBox="0.623 0.789 14.187 14.188"><path paint-order="stroke fill markers" fill-rule="evenodd" d="M14.729 1.361v-.003a.646.646 0 0 0-.48-.484c-.943-.23-2.428.015-4.073.674a13.101 13.101 0 0 0-4.262 2.698c-.336.335-.65.693-.936 1.072a4.15 4.15 0 0 0-1.855.298C1.295 6.42.773 8.48.633 9.326a.792.792 0 0 0 .862.918h.004l2.037-.223.007.072c.027.248.137.48.314.656l.994.995c.176.177.408.288.656.314l.068.007-.222 2.034v.004a.792.792 0 0 0 .911.863c.85-.137 2.909-.653 3.711-2.491.238-.585.34-1.217.3-1.848.38-.286.74-.598 1.075-.936a13.005 13.005 0 0 0 2.701-4.228c.655-1.627.902-3.122.678-4.102zM11.339 6.9a1.861 1.861 0 1 1-.002-2.632l.001.002c.727.715.736 1.884.02 2.61l-.02.02z"/></svg></svg><svg width="5" height="5" xmlns="http://www.w3.org/2000/svg" xmlns:xlink="http://www.w3.org/1999/xlink" xmlns:svgjs="http://svgjs.com/svgjs" viewBox="0.001 0 4.998 5" fill="#fff" x="163" y="2609"><svg xmlns="http://www.w3.org/2000/svg" xmlns:xlink="http://www.w3.org/1999/xlink" width="5" height="5" viewBox="0.129 0.416 4.053 4.054"><path paint-order="stroke fill markers" fill-rule="evenodd" d="M3.737 2.014a.508.508 0 0 0-.348.084c-.203.139-.406.275-.611.409a.472.472 0 0 1-.665-.634l.384-.664a.507.507 0 0 0-.48-.79A1.941 1.941 0 0 0 .89.973C.773 1.09.42 1.442.23 2.786A11.32 11.32 0 0 0 .129 3.95a.507.507 0 0 0 .493.52h.026c.39-.014.78-.048 1.166-.101 1.345-.19 1.697-.543 1.813-.659.306-.304.5-.703.551-1.132a.507.507 0 0 0-.441-.564z"/></svg></svg><svg width="4" height="8" xmlns="http://www.w3.org/2000/svg" xmlns:xlink="http://www.w3.org/1999/xlink" xmlns:svgjs="http://svgjs.com/svgjs" viewBox="0.333 0 3.333 8" fill="#fff" x="85" y="2611"><svg xmlns="http://www.w3.org/2000/svg" xmlns:xlink="http://www.w3.org/1999/xlink" width="4" height="8" viewBox="0.513 0.331 2.889 6.934"><path paint-order="stroke fill markers" fill-rule="evenodd" d="M2.536 7.265H1.38a.867.867 0 0 1-.867-.867v-5.2C.513.719.901.33 1.38.33h1.156c.478 0 .866.388.866.867v5.2a.867.867 0 0 1-.866.867z"/></svg></svg><svg width="4" height="12" xmlns="http://www.w3.org/2000/svg" xmlns:xlink="http://www.w3.org/1999/xlink" xmlns:svgjs="http://svgjs.com/svgjs" viewBox="0.333 0 3.333 12" fill="#fff" x="93" y="2607"><svg xmlns="http://www.w3.org/2000/svg" xmlns:xlink="http://www.w3.org/1999/xlink" width="4" height="12" viewBox="0.602 0.864 2.889 10.4"><path paint-order="stroke fill markers" fill-rule="evenodd" d="M2.625 11.265H1.469a.867.867 0 0 1-.867-.867V1.731c0-.479.388-.867.867-.867h1.156c.478 0 .866.388.866.867v8.667a.867.867 0 0 1-.866.867z"/></svg></svg><svg width="4" height="16" xmlns="http://www.w3.org/2000/svg" xmlns:xlink="http://www.w3.org/1999/xlink" xmlns:svgjs="http://svgjs.com/svgjs" viewBox="0.4 0 3.2 16" fill="#fff" x="97" y="2603"><svg xmlns="http://www.w3.org/2000/svg" xmlns:xlink="http://www.w3.org/1999/xlink" width="4" height="16" viewBox="0.647 0.82 2.889 14.445"><path paint-order="stroke fill markers" fill-rule="evenodd" d="M2.669 15.265H1.513a.867.867 0 0 1-.866-.867V1.687c0-.48.388-.867.866-.867H2.67c.479 0 .867.388.867.867v12.71a.867.867 0 0 1-.867.868z"/></svg></svg><svg width="4" height="19" xmlns="http://www.w3.org/2000/svg" xmlns:xlink="http://www.w3.org/1999/xlink" xmlns:svgjs="http://svgjs.com/svgjs" viewBox="0.417 0 3.167 19" fill="#fff" x="89" y="2600"><svg xmlns="http://www.w3.org/2000/svg" xmlns:xlink="http://www.w3.org/1999/xlink" width="4" height="19" viewBox="0.558 0.931 2.889 17.334"><path paint-order="stroke fill markers" fill-rule="evenodd" d="M2.58 18.265H1.424a.867.867 0 0 1-.866-.867v-15.6c0-.48.388-.867.866-.867H2.58c.479 0 .867.388.867.866v15.6a.867.867 0 0 1-.867.868z"/></svg></svg><svg width="10" height="10" xmlns="http://www.w3.org/2000/svg" xmlns:xlink="http://www.w3.org/1999/xlink" xmlns:svgjs="http://svgjs.com/svgjs" viewBox="0 0.015 10 9.97" fill="#fff" x="181" y="2538"><svg xmlns="http://www.w3.org/2000/svg" xmlns:xlink="http://www.w3.org/1999/xlink" width="10" height="10" viewBox="0.47 0.831 8.649 8.623"><path paint-order="stroke fill markers" fill-rule="evenodd" d="M8.823 1.954l-.826-.826a1.012 1.012 0 0 0-1.427-.004L.83 6.421c-.21.187-.34.449-.36.73-.011.281.094.555.292.756l1.233 1.247.003.002c.19.19.448.297.717.298h.037c.282-.016.545-.143.733-.353l5.334-5.714c.397-.393.4-1.034.006-1.43l-.002-.003z"/></svg></svg><svg width="11" height="9" xmlns="http://www.w3.org/2000/svg" xmlns:xlink="http://www.w3.org/1999/xlink" xmlns:svgjs="http://svgjs.com/svgjs" viewBox="0 0.219 11 8.562" fill="#fff" x="186" y="2533"><svg xmlns="http://www.w3.org/2000/svg" xmlns:xlink="http://www.w3.org/1999/xlink" width="11" height="9" viewBox="0.516 0.288 10.131 7.886"><path paint-order="stroke fill markers" fill-rule="evenodd" d="M10.458 5.285l-.01-.01-1.083-1.073a.69.69 0 0 0-.888-.067c0-.013.002-.027.003-.038a1.156 1.156 0 0 0-.165-.798 8.169 8.169 0 0 0-.784-.909l-.002-.002A8.561 8.561 0 0 0 4.787.618a4.418 4.418 0 0 0-1.679-.33 3.2 3.2 0 0 0-2.047.718 3.788 3.788 0 0 0-.449.513.506.506 0 0 0 .59.77 2.36 2.36 0 0 1 .271-.084c.192-.04.389-.053.584-.036a2.45 2.45 0 0 1 1.128.414c.382.321.595.8.578 1.299-.14.4-.355.77-.633 1.09a.506.506 0 0 0 .046.664l1.088 1.088c.19.19.496.2.696.02.308-.275.776-.69.94-.79.14-.094.298-.157.465-.184a.607.607 0 0 1 .357.075.04.04 0 0 1-.01.03l-.058.055-.01.009a.68.68 0 0 0 0 .962l.002.003L7.73 7.977a.687.687 0 0 0 .964.002l1.755-1.734a.691.691 0 0 0 .009-.96z"/></svg></svg><svg width="5" height="6" xmlns="http://www.w3.org/2000/svg" xmlns:xlink="http://www.w3.org/1999/xlink" xmlns:svgjs="http://svgjs.com/svgjs" viewBox="0.625 0 3.75 6" fill="#fff" x="71" y="2534"><svg xmlns="http://www.w3.org/2000/svg" xmlns:xlink="http://www.w3.org/1999/xlink" width="5" height="6" viewBox="0.848 0.357 3.165 5.065"><path paint-order="stroke fill markers" fill-rule="evenodd" d="M1.481 5.422a.633.633 0 0 1-.447-1.08L2.485 2.89 1.034 1.438a.633.633 0 1 1 .895-.895l1.9 1.9a.633.633 0 0 1 0 .894l-1.9 1.9a.631.631 0 0 1-.448.185z"/></svg></svg><svg width="14" height="6" xmlns="http://www.w3.org/2000/svg" xmlns:xlink="http://www.w3.org/1999/xlink" xmlns:svgjs="http://svgjs.com/svgjs" viewBox="0 0.2 14 5.6" fill="#fff" x="61" y="2536"><svg xmlns="http://www.w3.org/2000/svg" xmlns:xlink="http://www.w3.org/1999/xlink" width="14" height="6" viewBox="0.719 0.256 12.662 5.065"><path paint-order="stroke fill markers" fill-rule="evenodd" d="M1.352 5.32a.633.633 0 0 1-.633-.632v-.633A3.817 3.817 0 0 1 4.516.256h8.232a.633.633 0 0 1 0 1.267h-8.23a2.547 2.547 0 0 0-2.533 2.534v.631c0 .35-.283.633-.633.633z"/></svg></svg><svg width="5" height="6" xmlns="http://www.w3.org/2000/svg" xmlns:xlink="http://www.w3.org/1999/xlink" xmlns:svgjs="http://svgjs.com/svgjs" viewBox="0.625 0 3.75 6" fill="#fff" x="64" y="2541"><svg xmlns="http://www.w3.org/2000/svg" xmlns:xlink="http://www.w3.org/1999/xlink" width="5" height="6" viewBox="0.885 0.321 3.165 5.065"><path paint-order="stroke fill markers" fill-rule="evenodd" d="M3.417 5.386a.632.632 0 0 1-.448-.186L1.07 3.301a.633.633 0 0 1 0-.895l1.9-1.9a.633.633 0 1 1 .895.896L2.413 2.853l1.452 1.452a.633.633 0 0 1-.448 1.08z"/></svg></svg><svg width="14" height="6" xmlns="http://www.w3.org/2000/svg" xmlns:xlink="http://www.w3.org/1999/xlink" xmlns:svgjs="http://svgjs.com/svgjs" viewBox="0 0.2 14 5.6" fill="#fff" x="65" y="2539"><svg xmlns="http://www.w3.org/2000/svg" width="14" height="6" viewBox="0.517 0.422 12.662 5.065"><path paint-order="stroke fill markers" fill-rule="evenodd" d="M1.15 5.486a.633.633 0 0 1 0-1.266h8.23a2.547 2.547 0 0 0 2.533-2.534v-.631a.633.633 0 0 1 1.266 0v.633a3.817 3.817 0 0 1-3.796 3.798H1.15z"/></svg></svg></svg>