<svg width="373" height="284" xmlns="http://www.w3.org/2000/svg" xmlns:xlink="http://www.w3.org/1999/xlink" xmlns:svgjs="http://svgjs.com/svgjs" viewBox="1407 2774 373 284"><svg width="301" height="193" xmlns="http://www.w3.org/2000/svg" xmlns:xlink="http://www.w3.org/1999/xlink" xmlns:svgjs="http://svgjs.com/svgjs" viewBox="0 0.113 301 192.774" fill="#e6e6e6" x="1407" y="2774"><svg xmlns="http://www.w3.org/2000/svg" xmlns:xlink="http://www.w3.org/1999/xlink" width="301" height="193" viewBox="0.386 0.347 300.104 192.2"><path paint-order="stroke fill markers" fill-rule="evenodd" d="M.386.347H300.49v192.2H.386V.347z"/></svg></svg><svg width="284" height="158" xmlns="http://www.w3.org/2000/svg" xmlns:xlink="http://www.w3.org/1999/xlink" xmlns:svgjs="http://svgjs.com/svgjs" viewBox="0 0.345 284 157.31" fill="#fff" x="1415" y="2798"><svg xmlns="http://www.w3.org/2000/svg" xmlns:xlink="http://www.w3.org/1999/xlink" width="284" height="158" viewBox="0.967 0.454 282.941 156.723"><path paint-order="stroke fill markers" fill-rule="evenodd" d="M.967.454H283.91v156.723H.967V.454z"/></svg></svg><svg width="301" height="13" xmlns="http://www.w3.org/2000/svg" xmlns:xlink="http://www.w3.org/1999/xlink" xmlns:svgjs="http://svgjs.com/svgjs" viewBox="0 0.106 301 12.788" fill="#034274" x="1407" y="2774"><svg xmlns="http://www.w3.org/2000/svg" xmlns:xlink="http://www.w3.org/1999/xlink" width="301" height="13" viewBox="0.258 0.177 300.104 12.749"><path paint-order="stroke fill markers" fill-rule="evenodd" d="M.258.177h300.104v12.75H.258V.177z"/></svg></svg><svg width="6" height="6" xmlns="http://www.w3.org/2000/svg" xmlns:xlink="http://www.w3.org/1999/xlink" xmlns:svgjs="http://svgjs.com/svgjs" fill="#fff" x="1414" y="2778"><svg xmlns="http://www.w3.org/2000/svg" xmlns:xlink="http://www.w3.org/1999/xlink" width="6" height="6" viewBox="0.369 0.332 4.726 4.726"><path paint-order="stroke fill markers" fill-rule="evenodd" d="M2.732 5.058A2.36 2.36 0 0 1 .37 2.695 2.36 2.36 0 0 1 2.732.332a2.36 2.36 0 0 1 2.363 2.363 2.36 2.36 0 0 1-2.363 2.363z"/></svg></svg><svg width="6" height="6" xmlns="http://www.w3.org/2000/svg" xmlns:xlink="http://www.w3.org/1999/xlink" xmlns:svgjs="http://svgjs.com/svgjs" fill="#fff" x="1423" y="2778"><svg xmlns="http://www.w3.org/2000/svg" xmlns:xlink="http://www.w3.org/1999/xlink" width="6" height="6" viewBox="0.339 0.332 4.726 4.726"><path paint-order="stroke fill markers" fill-rule="evenodd" d="M2.702 5.058A2.36 2.36 0 0 1 .339 2.695 2.36 2.36 0 0 1 2.702.332a2.36 2.36 0 0 1 2.363 2.363 2.36 2.36 0 0 1-2.363 2.363z"/></svg></svg><svg width="6" height="6" xmlns="http://www.w3.org/2000/svg" xmlns:xlink="http://www.w3.org/1999/xlink" xmlns:svgjs="http://svgjs.com/svgjs" fill="#fff" x="1432" y="2778"><svg xmlns="http://www.w3.org/2000/svg" xmlns:xlink="http://www.w3.org/1999/xlink" width="6" height="6" viewBox="0.308 0.332 4.726 4.726"><path paint-order="stroke fill markers" fill-rule="evenodd" d="M2.671 5.058A2.36 2.36 0 0 1 .308 2.695 2.36 2.36 0 0 1 2.671.332a2.36 2.36 0 0 1 2.363 2.363 2.36 2.36 0 0 1-2.363 2.363z"/></svg></svg><svg width="74" height="125" xmlns="http://www.w3.org/2000/svg" xmlns:xlink="http://www.w3.org/1999/xlink" xmlns:svgjs="http://svgjs.com/svgjs" viewBox="0.415 0 73.171 125" fill="#e6e6e6" x="1441" y="2814"><svg xmlns="http://www.w3.org/2000/svg" xmlns:xlink="http://www.w3.org/1999/xlink" width="74" height="125" viewBox="0.676 0.715 72.703 124.201"><path paint-order="stroke fill markers" fill-rule="evenodd" d="M.676.715H73.38v124.2H.676V.716z"/></svg></svg><svg width="62" height="35" xmlns="http://www.w3.org/2000/svg" xmlns:xlink="http://www.w3.org/1999/xlink" xmlns:svgjs="http://svgjs.com/svgjs" viewBox="0 0.007 62 34.986" fill="#034274" x="1526" y="2814"><svg xmlns="http://www.w3.org/2000/svg" xmlns:xlink="http://www.w3.org/1999/xlink" width="62" height="35" viewBox="0.929 0.715 60.586 34.188"><path paint-order="stroke fill markers" fill-rule="evenodd" d="M.93.715h60.585v34.188H.929V.715z"/></svg></svg><svg width="62" height="38" xmlns="http://www.w3.org/2000/svg" xmlns:xlink="http://www.w3.org/1999/xlink" xmlns:svgjs="http://svgjs.com/svgjs" viewBox="0 0.179 62 37.643" fill="#e6e6e6" x="1526" y="2858"><svg xmlns="http://www.w3.org/2000/svg" xmlns:xlink="http://www.w3.org/1999/xlink" width="62" height="38" viewBox="0.929 0.423 60.586 36.784"><path paint-order="stroke fill markers" fill-rule="evenodd" d="M.93.423h60.585v36.784H.929V.423z"/></svg></svg><svg width="62" height="35" xmlns="http://www.w3.org/2000/svg" xmlns:xlink="http://www.w3.org/1999/xlink" xmlns:svgjs="http://svgjs.com/svgjs" viewBox="0 0.007 62 34.986" fill="#e6e6e6" x="1526" y="2904"><svg xmlns="http://www.w3.org/2000/svg" xmlns:xlink="http://www.w3.org/1999/xlink" width="62" height="35" viewBox="0.929 0.728 60.586 34.188"><path paint-order="stroke fill markers" fill-rule="evenodd" d="M.93.728h60.585v34.188H.929V.728z"/></svg></svg><svg width="74" height="55" xmlns="http://www.w3.org/2000/svg" xmlns:xlink="http://www.w3.org/1999/xlink" xmlns:svgjs="http://svgjs.com/svgjs" viewBox="0.062 0 73.876 55" fill="#e6e6e6" x="1600" y="2814"><svg xmlns="http://www.w3.org/2000/svg" xmlns:xlink="http://www.w3.org/1999/xlink" width="74" height="55" viewBox="0.497 0.715 72.703 54.126"><path paint-order="stroke fill markers" fill-rule="evenodd" d="M.497.715H73.2v54.126H.497V.715z"/></svg></svg><svg width="74" height="55" xmlns="http://www.w3.org/2000/svg" xmlns:xlink="http://www.w3.org/1999/xlink" xmlns:svgjs="http://svgjs.com/svgjs" viewBox="0.062 0 73.877 55" fill="#034274" x="1600" y="2884"><svg xmlns="http://www.w3.org/2000/svg" xmlns:xlink="http://www.w3.org/1999/xlink" width="74" height="55" viewBox="0.497 0.79 72.703 54.126"><path paint-order="stroke fill markers" fill-rule="evenodd" d="M.497.79H73.2v54.126H.497V.79z"/></svg></svg><svg width="41" height="39" xmlns="http://www.w3.org/2000/svg" xmlns:xlink="http://www.w3.org/1999/xlink" xmlns:svgjs="http://svgjs.com/svgjs" viewBox="0 0.205 41 38.591" fill="#2f2e41" x="1713" y="2861"><svg xmlns="http://www.w3.org/2000/svg" xmlns:xlink="http://www.w3.org/1999/xlink" width="41" height="39" viewBox="0.6 0.925 39.769 37.433"><path paint-order="stroke fill markers" fill-rule="evenodd" d="M37.605 9.51C32.81 1.337 23.322.956 23.322.956S14.077-.237 8.146 12.212C2.617 23.814-5.012 35.017 6.917 37.732l2.155-6.764 1.334 7.269c1.699.123 3.403.152 5.105.087 12.775-.415 24.941.122 24.55-4.502-.521-6.146 2.159-16.447-2.456-24.312z"/></svg></svg><svg width="40" height="43" xmlns="http://www.w3.org/2000/svg" xmlns:xlink="http://www.w3.org/1999/xlink" xmlns:svgjs="http://svgjs.com/svgjs" viewBox="0.319 0 39.363 43" fill="#ffb8b8" x="1671" y="2914"><svg xmlns="http://www.w3.org/2000/svg" xmlns:xlink="http://www.w3.org/1999/xlink" width="40" height="43" viewBox="0.534 0.15 39.187 42.808"><path paint-order="stroke fill markers" fill-rule="evenodd" d="M34.128.15l-4.195 10.72L8.96 30.446s-12.585 9.322-6.992 12.119c5.593 2.797 10.72-10.254 10.72-10.254L35.06 18.794l4.661-15.381L34.128.15z"/></svg></svg><svg width="11" height="13" xmlns="http://www.w3.org/2000/svg" xmlns:xlink="http://www.w3.org/1999/xlink" xmlns:svgjs="http://svgjs.com/svgjs" viewBox="0.204 0 10.593 13" fill="#ffb8b8" x="1712" y="3031"><svg xmlns="http://www.w3.org/2000/svg" xmlns:xlink="http://www.w3.org/1999/xlink" width="11" height="13" viewBox="0.119 0.141 10.254 12.585"><path paint-order="stroke fill markers" fill-rule="evenodd" d="M.12 2.006l4.194 10.72h6.06L5.245.14.12 2.006z"/></svg></svg><svg width="11" height="14" xmlns="http://www.w3.org/2000/svg" xmlns:xlink="http://www.w3.org/1999/xlink" xmlns:svgjs="http://svgjs.com/svgjs" viewBox="0 0.25 11 13.5" fill="#ffb8b8" x="1730" y="3035"><svg xmlns="http://www.w3.org/2000/svg" xmlns:xlink="http://www.w3.org/1999/xlink" width="11" height="14" viewBox="0.297 0.802 10.254 12.585"><path paint-order="stroke fill markers" fill-rule="evenodd" d="M.297 2.666l4.195 10.72h6.06L5.424.803.297 2.666z"/></svg></svg><svg width="43" height="109" xmlns="http://www.w3.org/2000/svg" xmlns:xlink="http://www.w3.org/1999/xlink" xmlns:svgjs="http://svgjs.com/svgjs" viewBox="0.344 0 42.312 109" fill="#2f2e41" x="1695" y="2931"><svg xmlns="http://www.w3.org/2000/svg" xmlns:xlink="http://www.w3.org/1999/xlink" width="43" height="109" viewBox="0.788 0.421 41.967 108.11"><path paint-order="stroke fill markers" fill-rule="evenodd" d="M34.831 108.53l7.924-1.864-10.254-41.483 3.404-31.918.091-.01S41.823 10.65 37.162 4.59C32.5-1.469 9.196.862 9.196.862S.34 9.717.806 29.76c.466 20.042 0 37.288 3.263 45.212 3.262 7.923 12.584 28.898 12.584 28.898l7.458-.932-7.924-34.492-1.267-29.983c1.008 12.016 3.038 34.799 4.064 36.509 1.398 2.33 15.847 33.559 15.847 33.559z"/></svg></svg><svg width="35" height="52" xmlns="http://www.w3.org/2000/svg" xmlns:xlink="http://www.w3.org/1999/xlink" xmlns:svgjs="http://svgjs.com/svgjs" viewBox="0 0.618 35 50.764" fill="#ffb8b8" x="1745" y="2923"><svg xmlns="http://www.w3.org/2000/svg" xmlns:xlink="http://www.w3.org/1999/xlink" width="35" height="52" viewBox="0.213 0.938 34.787 50.456"><path paint-order="stroke fill markers" fill-rule="evenodd" d="M8.602.938l3.263 11.652 14.45 26.102s12.584 11.186 7.457 12.585C28.645 52.675 20.72 41.023 20.72 41.023L4.408 18.183.213 1.405l8.39-.466z"/></svg></svg><svg width="24" height="24" xmlns="http://www.w3.org/2000/svg" xmlns:xlink="http://www.w3.org/1999/xlink" xmlns:svgjs="http://svgjs.com/svgjs" fill="#ffb8b8" x="1725" y="2867"><svg xmlns="http://www.w3.org/2000/svg" xmlns:xlink="http://www.w3.org/1999/xlink" width="24" height="24" viewBox="0.17 0.54 23.305 23.305"><path paint-order="stroke fill markers" fill-rule="evenodd" d="M11.823 23.845A11.642 11.642 0 0 1 .17 12.192 11.642 11.642 0 0 1 11.823.54a11.642 11.642 0 0 1 11.652 11.652 11.642 11.642 0 0 1-11.652 11.653z"/></svg></svg><svg width="18" height="20" xmlns="http://www.w3.org/2000/svg" xmlns:xlink="http://www.w3.org/1999/xlink" xmlns:svgjs="http://svgjs.com/svgjs" viewBox="0 0.027 18 19.946" fill="#ffb8b8" x="1723" y="2885"><svg xmlns="http://www.w3.org/2000/svg" xmlns:xlink="http://www.w3.org/1999/xlink" width="18" height="20" viewBox="0.306 0.252 17.246 19.11"><path paint-order="stroke fill markers" fill-rule="evenodd" d="M7.764.252L4.967 9.107.306 19.362l17.246-6.992s-.933-7.457 0-9.322L7.764.252z"/></svg></svg><svg width="49" height="46" xmlns="http://www.w3.org/2000/svg" xmlns:xlink="http://www.w3.org/1999/xlink" xmlns:svgjs="http://svgjs.com/svgjs" viewBox="0 0.331 49 45.337" fill="#16213e" x="1702" y="2892"><svg xmlns="http://www.w3.org/2000/svg" xmlns:xlink="http://www.w3.org/1999/xlink" width="49" height="46" viewBox="0.331 0.604 48.474 44.851"><path paint-order="stroke fill markers" fill-rule="evenodd" d="M48.806 11.895L38.086 3.04l-12.12 5.127.476-7.563-12.93 4.13-1.994.636L8.72 19.82s-1.864 1.398-3.729 9.321a68.293 68.293 0 0 1-4.66 13.517s20.042-7.924 29.83 2.797c0 0 1.398-.932.932-2.33-.466-1.4 4.195-8.39 4.195-8.39s0 1.398 1.864-1.399c1.865-2.797 3.263-3.262 3.263-3.262l8.39-18.179z"/></svg></svg><svg width="15" height="23" xmlns="http://www.w3.org/2000/svg" xmlns:xlink="http://www.w3.org/1999/xlink" xmlns:svgjs="http://svgjs.com/svgjs" viewBox="0.656 0 13.689 23" fill="#16213e" x="1702" y="2897"><svg xmlns="http://www.w3.org/2000/svg" xmlns:xlink="http://www.w3.org/1999/xlink" width="15" height="23" viewBox="0.798 0.032 13.517 22.711"><path paint-order="stroke fill markers" fill-rule="evenodd" d="M14.314 1.769L12.278.127s-1.692-.69-3.09 1.642c-1.4 2.33-8.39 16.78-8.39 16.78l8.39 4.194L14.313 1.77z"/></svg></svg><svg width="15" height="27" xmlns="http://www.w3.org/2000/svg" xmlns:xlink="http://www.w3.org/1999/xlink" xmlns:svgjs="http://svgjs.com/svgjs" viewBox="0.027 0 14.946 27" fill="#16213e" x="1741" y="2903"><svg xmlns="http://www.w3.org/2000/svg" xmlns:xlink="http://www.w3.org/1999/xlink" width="15" height="27" viewBox="0.018 0.43 14.449 26.102"><path paint-order="stroke fill markers" fill-rule="evenodd" d="M3.28.43l6.526.465s3.729 1.865 3.729 4.662c0 2.796.932 17.712.932 17.712L4.213 26.53.018 13.481 3.28.43z"/></svg></svg><svg width="30" height="11" xmlns="http://www.w3.org/2000/svg" xmlns:xlink="http://www.w3.org/1999/xlink" xmlns:svgjs="http://svgjs.com/svgjs" viewBox="0.814 0 28.371 11" fill="#2f2e41" x="1698" y="3042"><svg xmlns="http://www.w3.org/2000/svg" xmlns:xlink="http://www.w3.org/1999/xlink" width="30" height="11" viewBox="0.977 0.094 28.109 10.898"><path paint-order="stroke fill markers" fill-rule="evenodd" d="M16.968.094L9.044 3.357s-9.322.466-7.924 5.127C2.518 13.145 16.5 9.883 16.5 9.883s12.585.466 12.585-2.797c0-3.263-1.864-6.992-3.729-6.992h-8.39z"/></svg></svg><svg width="29" height="12" xmlns="http://www.w3.org/2000/svg" xmlns:xlink="http://www.w3.org/1999/xlink" xmlns:svgjs="http://svgjs.com/svgjs" viewBox="0 0.378 29 11.244" fill="#2f2e41" x="1716" y="3046"><svg xmlns="http://www.w3.org/2000/svg" xmlns:xlink="http://www.w3.org/1999/xlink" width="29" height="12" viewBox="0.689 0.289 28.109 10.899"><path paint-order="stroke fill markers" fill-rule="evenodd" d="M16.68.29L8.755 3.551S-.567 4.018.832 8.679c1.398 4.661 15.381 1.399 15.381 1.399s12.585.465 12.585-2.797c0-3.263-1.864-6.992-3.729-6.992h-8.39z"/></svg></svg><svg width="26" height="15" xmlns="http://www.w3.org/2000/svg" xmlns:xlink="http://www.w3.org/1999/xlink" xmlns:svgjs="http://svgjs.com/svgjs" viewBox="0 0.369 26 14.263" fill="#2f2e41" x="1723" y="2864"><svg xmlns="http://www.w3.org/2000/svg" xmlns:xlink="http://www.w3.org/1999/xlink" width="26" height="15" viewBox="0.489 0.77 25.442 13.957"><path paint-order="stroke fill markers" fill-rule="evenodd" d="M25.485 5.723L16.112.77 3.167 2.796.49 14.726l6.667-.257 1.862-4.384v4.311l3.077-.119 1.785-6.979 1.116 7.429 10.936-.225-.447-8.78z"/></svg></svg><svg width="195" height="175" xmlns="http://www.w3.org/2000/svg" xmlns:xlink="http://www.w3.org/1999/xlink" xmlns:svgjs="http://svgjs.com/svgjs" viewBox="0.19 0 194.621 175" fill="#3f3d56" x="1582" y="2798"><svg xmlns="http://www.w3.org/2000/svg" xmlns:xlink="http://www.w3.org/1999/xlink" width="195" height="175" viewBox="0.271 0.282 193.821 174.281"><path paint-order="stroke fill markers" fill-rule="evenodd" d="M103.79 15.118C77.802-6.81 39.095-4.13 16.378 21.17c-22.718 25.301-21.23 64.073 3.361 87.557 24.59 23.485 63.389 23.19 87.619-.667l77.195 65.136a5.8 5.8 0 1 0 7.48-8.864l-77.195-65.137c18.584-26.672 13.796-63.11-11.048-84.077zm-4.976 77.805c-16.793 19.902-46.54 22.422-66.442 5.63C12.47 81.758 9.95 52.011 26.743 32.11s46.54-22.422 66.442-5.628c19.902 16.792 22.422 46.54 5.629 66.441z"/></svg></svg><svg width="87" height="81" xmlns="http://www.w3.org/2000/svg" xmlns:xlink="http://www.w3.org/1999/xlink" xmlns:svgjs="http://svgjs.com/svgjs" viewBox="0.407 0 86.186 81" opacity=".302" x="1592" y="2833"><svg xmlns="http://www.w3.org/2000/svg" width="87" height="81" viewBox="0.641 0.168 85.558 80.41"><path paint-order="stroke fill markers" fill-rule="evenodd" d="M22.372 63.552C3.617 47.725.138 20.16 14.372.168a48.8 48.8 0 0 0-2.615 2.852C-5.036 22.922-2.516 52.67 17.385 69.462c19.902 16.793 49.65 14.273 66.442-5.63a46.84 46.84 0 0 0 2.372-3.056C68.888 78.17 41.13 79.377 22.372 63.552z"/></svg></svg></svg>