<svg width="295" height="214" xmlns="http://www.w3.org/2000/svg" xmlns:xlink="http://www.w3.org/1999/xlink" xmlns:svgjs="http://svgjs.com/svgjs" viewBox="813 1120 295 214"><svg width="99" height="55" xmlns="http://www.w3.org/2000/svg" xmlns:xlink="http://www.w3.org/1999/xlink" xmlns:svgjs="http://svgjs.com/svgjs" viewBox="0 0.657 99 53.686" fill="#f2f2f2" x="904" y="1279"><svg xmlns="http://www.w3.org/2000/svg" xmlns:xlink="http://www.w3.org/1999/xlink" width="99" height="55" viewBox="0.118 0.576 98.816 53.586"><path paint-order="stroke fill markers" fill-rule="evenodd" d="M91.435 54.162c2.834-6.122 5.666-12.334 6.896-18.967 1.23-6.633.713-13.831-2.81-19.584C92 9.858 85.064 5.957 78.445 7.257c-5.437 1.068-9.803 5.35-12.359 10.266-2.556 4.916-3.581 10.46-4.575 15.91-.322-6.192-.662-12.484-2.719-18.333-2.057-5.85-6.108-11.3-11.88-13.564-5.773-2.264-13.283-.484-16.325 4.919-4.287 7.612 1.397 18.289-3.532 25.501-.845-7.235-8.41-12.95-15.601-11.787C4.263 21.332-1.115 29.143.365 36.275c.88 4.243 3.775 7.853 7.237 10.46 3.462 2.609 7.488 5.631 11.47 7.34l72.363.087z"/></svg></svg><svg width="33" height="29" xmlns="http://www.w3.org/2000/svg" xmlns:xlink="http://www.w3.org/1999/xlink" xmlns:svgjs="http://svgjs.com/svgjs" viewBox="0.163 0 32.674 29" fill="#fff" x="907" y="1303"><svg xmlns="http://www.w3.org/2000/svg" xmlns:xlink="http://www.w3.org/1999/xlink" width="33" height="29" viewBox="0.117 0.319 31.957 28.363"><path paint-order="stroke fill markers" fill-rule="evenodd" d="M.448 1.28c5.712 1.996 11.476 4.015 16.69 7.137 4.674 2.797 8.835 6.564 11.463 11.387a20.25 20.25 0 0 1 2.505 8.413c.038.618 1.005.622.967 0-.338-5.5-3.02-10.535-6.731-14.516-4.07-4.365-9.344-7.346-14.79-9.659C7.324 2.671 4.015 1.505.705.348c-.588-.205-.841.728-.257.932z"/></svg></svg><svg width="15" height="52" xmlns="http://www.w3.org/2000/svg" xmlns:xlink="http://www.w3.org/1999/xlink" xmlns:svgjs="http://svgjs.com/svgjs" viewBox="0.651 0 13.699 52" fill="#fff" x="940" y="1280"><svg xmlns="http://www.w3.org/2000/svg" xmlns:xlink="http://www.w3.org/1999/xlink" width="15" height="52" viewBox="0.96 0.781 13.492 51.215"><path paint-order="stroke fill markers" fill-rule="evenodd" d="M1.018 1.494A87.037 87.037 0 0 1 9.39 20.081a88.095 88.095 0 0 1 3.862 20.014c.281 3.806.312 7.626.092 11.436-.036.621.93.62.966 0A88.143 88.143 0 0 0 13.072 31 89.198 89.198 0 0 0 7.14 11.305 86.953 86.953 0 0 0 1.852 1.007a.484.484 0 0 0-.834.487z"/></svg></svg><svg width="14" height="47" xmlns="http://www.w3.org/2000/svg" xmlns:xlink="http://www.w3.org/1999/xlink" xmlns:svgjs="http://svgjs.com/svgjs" viewBox="0.579 0 12.842 47" fill="#fff" x="977" y="1286"><svg xmlns="http://www.w3.org/2000/svg" xmlns:xlink="http://www.w3.org/1999/xlink" width="14" height="47" viewBox="0.481 0.793 12.535 45.876"><path paint-order="stroke fill markers" fill-rule="evenodd" d="M12.136 1.045A140.868 140.868 0 0 0 1.745 36 142.337 142.337 0 0 0 .483 46.206c-.054.62.913.616.966 0A140.362 140.362 0 0 1 12.97 1.533c.25-.564-.582-1.056-.834-.488z"/></svg></svg><svg width="35" height="58" xmlns="http://www.w3.org/2000/svg" xmlns:xlink="http://www.w3.org/1999/xlink" xmlns:svgjs="http://svgjs.com/svgjs" viewBox="0.25 0 34.5 58" fill="#f2f2f2" x="813" y="1275"><svg xmlns="http://www.w3.org/2000/svg" xmlns:xlink="http://www.w3.org/1999/xlink" width="35" height="58" viewBox="0 0.066 34.164 57.434"><path paint-order="stroke fill markers" fill-rule="evenodd" d="M34.163 57.439C13.79 52.136-.319 33.592.005 12.542c.04-2.548.308-5.15 1.379-7.463C2.455 2.767 4.445.766 6.934.22 9.65-.38 12.517.843 14.541 2.75c2.025 1.907 3.352 4.424 4.573 6.923C26.47 24.726 32.06 40.877 34.151 57.499l.012-.06z"/></svg></svg><svg width="29" height="58" xmlns="http://www.w3.org/2000/svg" xmlns:xlink="http://www.w3.org/1999/xlink" xmlns:svgjs="http://svgjs.com/svgjs" viewBox="0.531 0 27.939 58" fill="#fff" x="818" y="1275"><svg xmlns="http://www.w3.org/2000/svg" xmlns:xlink="http://www.w3.org/1999/xlink" width="29" height="58" viewBox="0.676 0.307 27.774 57.659"><path paint-order="stroke fill markers" fill-rule="evenodd" d="M.702.72l5.155 11.714 5.155 11.713c1.633 3.71 3.262 7.421 4.95 11.106 1.673 3.653 3.403 7.28 5.248 10.85 1.844 3.563 3.802 7.069 5.928 10.472.265.424.533.846.803 1.266.186.292.653.021.465-.272-2.167-3.378-4.163-6.862-6.036-10.41-1.875-3.553-3.627-7.17-5.315-10.815-1.696-3.664-3.327-7.358-4.954-11.054L6.964 13.62 1.809 1.905 1.167.448C1.027.131.563.405.701.721z"/></svg></svg><svg width="33" height="25" xmlns="http://www.w3.org/2000/svg" xmlns:xlink="http://www.w3.org/1999/xlink" xmlns:svgjs="http://svgjs.com/svgjs" viewBox="0.272 0 32.456 25" fill="#f2f2f2" x="813" y="1309"><svg xmlns="http://www.w3.org/2000/svg" xmlns:xlink="http://www.w3.org/1999/xlink" width="33" height="25" viewBox="0.853 0.186 31.17 24.009"><path paint-order="stroke fill markers" fill-rule="evenodd" d="M32.013 23.52c-12.01 2.747-24.34-3.072-29.855-14.088C1.491 8.098.928 6.675.86 5.185c-.068-1.49.425-3.065 1.57-4.022C3.676.12 5.495-.02 7.061.423c1.566.445 2.934 1.393 4.243 2.36 7.882 5.83 15.144 12.707 20.718 20.772l-.01-.035z"/></svg></svg><svg width="31" height="24" xmlns="http://www.w3.org/2000/svg" xmlns:xlink="http://www.w3.org/1999/xlink" xmlns:svgjs="http://svgjs.com/svgjs" viewBox="0 0.259 31 23.482" fill="#fff" x="814" y="1310"><svg xmlns="http://www.w3.org/2000/svg" xmlns:xlink="http://www.w3.org/1999/xlink" width="31" height="24" viewBox="0.861 0.456 29.869 22.625"><path paint-order="stroke fill markers" fill-rule="evenodd" d="M.924.757l5.84 4.69 5.838 4.689c1.849 1.485 3.697 2.972 5.568 4.43a147.207 147.207 0 0 0 5.654 4.215 86.84 86.84 0 0 0 5.905 3.837c.251.149.504.296.758.441.176.101.345-.165.168-.267a83.12 83.12 0 0 1-5.944-3.775 136.083 136.083 0 0 1-5.679-4.18 377.46 377.46 0 0 1-5.556-4.402L7.658 5.763l-5.839-4.69L1.092.49C.934.363.767.63.924.757z"/></svg></svg><svg width="275" height="2" xmlns="http://www.w3.org/2000/svg" xmlns:xlink="http://www.w3.org/1999/xlink" xmlns:svgjs="http://svgjs.com/svgjs" viewBox="0 0.615 275 0.771" fill="#3f3d56" x="826" y="1332"><svg xmlns="http://www.w3.org/2000/svg" xmlns:xlink="http://www.w3.org/1999/xlink" width="275" height="2" viewBox="0.682 0.505 273.673 0.767"><path paint-order="stroke fill markers" fill-rule="evenodd" d="M273.963 1.272H1.075A.388.388 0 0 1 .682.89c0-.212.176-.384.393-.384h272.888c.216 0 .392.172.392.384a.388.388 0 0 1-.392.383z"/></svg></svg><svg width="43" height="10" xmlns="http://www.w3.org/2000/svg" xmlns:xlink="http://www.w3.org/1999/xlink" xmlns:svgjs="http://svgjs.com/svgjs" viewBox="0 0.569 43 8.862" fill="#3f3d56" x="1054" y="1294"><svg xmlns="http://www.w3.org/2000/svg" xmlns:xlink="http://www.w3.org/1999/xlink" width="43" height="10" viewBox="0.806 0.849 42.193 8.696"><path paint-order="stroke fill markers" fill-rule="evenodd" d="M38.973.85h-18.04c0 .444-.36.804-.805.805H2.419a4.15 4.15 0 0 0-.68.644 3.997 3.997 0 0 0-.933 2.577v.644A4.027 4.027 0 0 0 4.83 9.546h34.142a4.03 4.03 0 0 0 4.026-4.026v-.644A4.032 4.032 0 0 0 38.973.849z"/></svg></svg><svg width="6" height="31" xmlns="http://www.w3.org/2000/svg" xmlns:xlink="http://www.w3.org/1999/xlink" xmlns:svgjs="http://svgjs.com/svgjs" viewBox="0.81 0 4.38 31" fill="#3f3d56" x="1073" y="1303"><svg xmlns="http://www.w3.org/2000/svg" xmlns:xlink="http://www.w3.org/1999/xlink" width="6" height="31" viewBox="0.968 0.386 4.187 29.632"><path paint-order="stroke fill markers" fill-rule="evenodd" d="M.968.386h4.187v29.632H.968V.386z"/></svg></svg><svg width="30" height="6" xmlns="http://www.w3.org/2000/svg" xmlns:xlink="http://www.w3.org/1999/xlink" xmlns:svgjs="http://svgjs.com/svgjs" viewBox="0 0.725 30 4.551" fill="#3f3d56" x="1061" y="1328"><svg xmlns="http://www.w3.org/2000/svg" xmlns:xlink="http://www.w3.org/1999/xlink" width="30" height="6" viewBox="0.729 0.831 28.344 4.299"><path paint-order="stroke fill markers" fill-rule="evenodd" d="M29.072 4.87c0 .453-6.345.176-14.171.176-7.827 0-14.172.277-14.172-.175C.729 4.418 7.074.83 14.9.83c7.826 0 14.171 3.587 14.171 4.04z"/></svg></svg><svg width="43" height="16" xmlns="http://www.w3.org/2000/svg" xmlns:xlink="http://www.w3.org/1999/xlink" xmlns:svgjs="http://svgjs.com/svgjs" viewBox="0 0.516 43 14.967" fill="#16213e" x="1050" y="1289"><svg xmlns="http://www.w3.org/2000/svg" xmlns:xlink="http://www.w3.org/1999/xlink" width="43" height="16" viewBox="0.64 0.602 41.569 14.469"><path paint-order="stroke fill markers" fill-rule="evenodd" d="M42.184 6.777l-.702-4.393A2.117 2.117 0 0 0 39.059.629l-7.243 1.156-12.407 1.98-4.036.645h8.755c.444 0 .805.36.805.805v.634c0 .445-.36.805-.805.806H1.848c-.31.145-.58.367-.782.644a2.09 2.09 0 0 0-.4 1.597l.2 1.25.242 1.517.261 1.63a2.113 2.113 0 0 0 2.416 1.752l5.755-.918 16.6-2.65 14.288-2.281a2.122 2.122 0 0 0 1.756-2.42z"/></svg></svg><svg width="10" height="30" xmlns="http://www.w3.org/2000/svg" xmlns:xlink="http://www.w3.org/1999/xlink" xmlns:svgjs="http://svgjs.com/svgjs" viewBox="0.448 0 9.103 30" fill="#16213e" x="1050" y="1295"><svg xmlns="http://www.w3.org/2000/svg" xmlns:xlink="http://www.w3.org/1999/xlink" width="10" height="30" viewBox="0.866 0.655 8.674 28.585"><path paint-order="stroke fill markers" fill-rule="evenodd" d="M9.1 1.299a2.047 2.047 0 0 0-.816-.644H2.126c-.324.14-.606.362-.818.644-.287.367-.442.82-.442 1.285V27.13a2.113 2.113 0 0 0 2.11 2.11h4.455a2.113 2.113 0 0 0 2.11-2.11V2.584c0-.466-.156-.918-.442-1.285z"/></svg></svg><svg width="31" height="22" xmlns="http://www.w3.org/2000/svg" xmlns:xlink="http://www.w3.org/1999/xlink" xmlns:svgjs="http://svgjs.com/svgjs" viewBox="0 0.732 31 20.536" fill="#16213e" x="1042" y="1248"><svg xmlns="http://www.w3.org/2000/svg" xmlns:xlink="http://www.w3.org/1999/xlink" width="31" height="22" viewBox="0.099 0.697 30.877 20.455"><path paint-order="stroke fill markers" fill-rule="evenodd" d="M30.504 4.938l-.042-.054L27.7 1.479a2.028 2.028 0 0 0-.525-.46 1.554 1.554 0 0 0-.342-.175 2.152 2.152 0 0 0-.93-.142.01.01 0 0 0-.007.004 2.089 2.089 0 0 0-1.166.464l-5.672 4.6-7.289 5.913L.892 20.508l-.793.644h13.763l.795-.644 2.632-2.136.187-.148 12.71-10.31.01-.006a2.125 2.125 0 0 0 .77-1.424 2.093 2.093 0 0 0-.462-1.546z"/></svg></svg><svg width="20" height="20" xmlns="http://www.w3.org/2000/svg" xmlns:xlink="http://www.w3.org/1999/xlink" xmlns:svgjs="http://svgjs.com/svgjs" viewBox="0 0.248 20 19.504" fill="#2f2e41" x="1053" y="1248"><svg xmlns="http://www.w3.org/2000/svg" xmlns:xlink="http://www.w3.org/1999/xlink" width="20" height="20" viewBox="0.589 0.639 18.979 18.508"><path paint-order="stroke fill markers" fill-rule="evenodd" d="M19.462 4.851A5.253 5.253 0 0 0 18.316 2.5 5.191 5.191 0 0 0 15.79.857 5.536 5.536 0 0 0 14.9.67a.01.01 0 0 0-.006.003 5.254 5.254 0 0 0-3.8 1.05L1.284 9.223a2.081 2.081 0 0 0-.693 1.472c-.015.328.046.655.177.956.033.068.068.136.107.2.075.13.166.252.27.36l1.572 1.766 3.656 4.1.103.116.235.267a2.11 2.11 0 0 0 2.986.132l8.46-9.09a5.303 5.303 0 0 0 1.304-4.65z"/></svg></svg><svg width="33" height="33" xmlns="http://www.w3.org/2000/svg" xmlns:xlink="http://www.w3.org/1999/xlink" xmlns:svgjs="http://svgjs.com/svgjs" fill="#16213e" x="1060" y="1208"><svg xmlns="http://www.w3.org/2000/svg" xmlns:xlink="http://www.w3.org/1999/xlink" width="33" height="33" viewBox="0.059 0.089 32.287 32.287"><path paint-order="stroke fill markers" fill-rule="evenodd" d="M16.203 32.376C7.276 32.376.059 25.16.059 16.232.06 7.305 7.276.09 16.203.09s16.144 7.216 16.144 16.143c0 8.928-7.217 16.144-16.144 16.144z"/></svg></svg><svg width="43" height="16" xmlns="http://www.w3.org/2000/svg" xmlns:xlink="http://www.w3.org/1999/xlink" xmlns:svgjs="http://svgjs.com/svgjs" viewBox="0 0.514 43 14.972" fill="#16213e" x="1040" y="1286"><svg xmlns="http://www.w3.org/2000/svg" xmlns:xlink="http://www.w3.org/1999/xlink" width="43" height="16" viewBox="0.737 0.623 41.546 14.466"><path paint-order="stroke fill markers" fill-rule="evenodd" d="M42.257 6.798l-.441-2.77-.261-1.626A2.114 2.114 0 0 0 39.135.65L27.403 2.52l-3.182.509-.644.103v3.52h10.552c.444 0 .805.36.805.805v.635c0 .445-.36.805-.805.805H.737c0 .007.003.013.003.02l.2 1.25.502 3.143a2.113 2.113 0 0 0 2.416 1.752l5.756-.918 1.252-.2.242-.038 8.432-1.347 5.737-.917 9.102-1.453.135-.023 5.988-.953a2.115 2.115 0 0 0 1.755-2.416z"/></svg></svg><svg width="47" height="55" xmlns="http://www.w3.org/2000/svg" xmlns:xlink="http://www.w3.org/1999/xlink" xmlns:svgjs="http://svgjs.com/svgjs" viewBox="0.627 0 45.747 55" fill="#2f2e41" x="1052" y="1245"><svg xmlns="http://www.w3.org/2000/svg" xmlns:xlink="http://www.w3.org/1999/xlink" width="47" height="55" viewBox="0.631 0.13 45.543 54.755"><path paint-order="stroke fill markers" fill-rule="evenodd" d="M46.174 35.723c0 13.161-1.336 21.033-21.95 18.778l-.083-.01a61.213 61.213 0 0 1-10.864-2.077 32.262 32.262 0 0 1-5.36-2.1 24.223 24.223 0 0 1-1.179-.644h15.39c.444 0 .805-.36.805-.806v-.634a.806.806 0 0 0-.805-.805H11.576V27.082a2.364 2.364 0 0 0-2.36-2.361H.63c.075-.213.149-.429.23-.644a52.75 52.75 0 0 1 2.856-6.5 49.578 49.578 0 0 1 5.34-8.239 34.312 34.312 0 0 1 4.78-4.892C17.067 1.779 20.585.13 24.154.13c13.16 0 22.02 22.433 22.02 35.593z"/></svg></svg><svg width="5" height="12" xmlns="http://www.w3.org/2000/svg" xmlns:xlink="http://www.w3.org/1999/xlink" xmlns:svgjs="http://svgjs.com/svgjs" viewBox="0.058 0 4.885 12" fill="#2f2e41" x="1072" y="1219"><svg xmlns="http://www.w3.org/2000/svg" xmlns:xlink="http://www.w3.org/1999/xlink" width="5" height="12" viewBox="0.379 0.973 4.18 10.27"><path paint-order="stroke fill markers" fill-rule="evenodd" d="M4.542 11.243l.017-.603c-1.122-.031-2.112-.102-2.855-.645a1.854 1.854 0 0 1-.719-1.366 1.06 1.06 0 0 1 .348-.873c.494-.417 1.288-.282 1.867-.017l.499.23L2.742.972l-.598.082.814 5.95a2.13 2.13 0 0 0-2.014.29A1.65 1.65 0 0 0 .382 8.65c.036.723.39 1.394.966 1.832.955.699 2.196.734 3.194.761z"/></svg></svg><svg width="5" height="2" xmlns="http://www.w3.org/2000/svg" xmlns:xlink="http://www.w3.org/1999/xlink" xmlns:svgjs="http://svgjs.com/svgjs" viewBox="0 0.536 5 0.928" fill="#2f2e41" x="1067" y="1220"><svg xmlns="http://www.w3.org/2000/svg" xmlns:xlink="http://www.w3.org/1999/xlink" width="5" height="2" viewBox="0.939 0.475 3.249 0.603"><path paint-order="stroke fill markers" fill-rule="evenodd" d="M.939.475h3.25v.603H.938V.475z"/></svg></svg><svg width="4" height="2" xmlns="http://www.w3.org/2000/svg" xmlns:xlink="http://www.w3.org/1999/xlink" xmlns:svgjs="http://svgjs.com/svgjs" viewBox="0 0.629 4 0.743" fill="#2f2e41" x="1078" y="1220"><svg xmlns="http://www.w3.org/2000/svg" xmlns:xlink="http://www.w3.org/1999/xlink" width="4" height="2" viewBox="0.195 0.475 3.249 0.603"><path paint-order="stroke fill markers" fill-rule="evenodd" d="M.195.475h3.249v.603H.194V.475z"/></svg></svg><svg width="47" height="54" xmlns="http://www.w3.org/2000/svg" xmlns:xlink="http://www.w3.org/1999/xlink" xmlns:svgjs="http://svgjs.com/svgjs" viewBox="0.059 0 46.882 54" fill="#2f2e41" x="1061" y="1195"><svg xmlns="http://www.w3.org/2000/svg" xmlns:xlink="http://www.w3.org/1999/xlink" width="47" height="54" viewBox="0.816 0.993 45.532 52.445"><path paint-order="stroke fill markers" fill-rule="evenodd" d="M28.087 24.729c-1.256-1.89-3.465-2.691-5.643-2.886-2.453-.22-4.822.253-7.216.713-2.635.505-5.423.978-8.078.34a7.965 7.965 0 0 1-5.414-4.374 10.187 10.187 0 0 1-.593-6.792C1.766 9.32 3.31 7.2 5.182 5.6c3.82-3.268 8.991-4.736 13.964-4.598a23.61 23.61 0 0 1 13.687 4.813 22.23 22.23 0 0 1 7.887 12.358 23.176 23.176 0 0 1-1.123 14.577c-1.088 2.524-2.662 4.8-3.876 7.261-1.131 2.292-2.002 4.956-1.298 7.511.617 2.243 2.43 4.236 4.705 4.844a4.941 4.941 0 0 0 5.495-2.243c1.137-1.793 1.165-4.143-.543-5.591a4.193 4.193 0 0 0-6.048.603 4.316 4.316 0 0 0-.863 3.164c.084.57-.788.816-.873.24a5.105 5.105 0 0 1 9.518-3.295c1.03 1.936.474 4.272-.833 5.927a5.777 5.777 0 0 1-5.891 2.119c-2.38-.55-4.327-2.442-5.242-4.664-1.02-2.475-.553-5.237.44-7.638 1.075-2.596 2.67-4.923 3.931-7.425a21.148 21.148 0 0 0 2.146-7.225 22.862 22.862 0 0 0-3.26-14.481 21.248 21.248 0 0 0-11.703-8.895 22.207 22.207 0 0 0-14.694.389C6.11 5.163 1.67 9.11 1.723 14.414c.023 2.265.864 4.575 2.598 6.086 2.074 1.805 4.961 1.96 7.568 1.678 2.623-.284 5.17-1.05 7.805-1.245 2.291-.17 4.763.007 6.81 1.145a6.807 6.807 0 0 1 2.364 2.194c.323.486-.46.94-.781.457z"/></svg></svg><svg width="24" height="38" xmlns="http://www.w3.org/2000/svg" xmlns:xlink="http://www.w3.org/1999/xlink" xmlns:svgjs="http://svgjs.com/svgjs" viewBox="0.193 0 23.614 38" fill="#16213e" x="1063" y="1255"><svg xmlns="http://www.w3.org/2000/svg" xmlns:xlink="http://www.w3.org/1999/xlink" width="24" height="38" viewBox="0.576 0.104 23.129 37.219"><path paint-order="stroke fill markers" fill-rule="evenodd" d="M22.8 3.02l-1.279-.889L19.141.48a2.114 2.114 0 0 0-2.938.532L8.444 12.177 1.22 22.574l-.644.928v13.82h.058a2.103 2.103 0 0 0 1.52-.892l2.248-3.24 5.556-7.997 5.76-8.284.547-.79 7.06-10.161a1.878 1.878 0 0 0 .193-.339A2.11 2.11 0 0 0 22.8 3.02z"/></svg></svg><svg width="18" height="21" xmlns="http://www.w3.org/2000/svg" xmlns:xlink="http://www.w3.org/1999/xlink" xmlns:svgjs="http://svgjs.com/svgjs" viewBox="0 0.146 18 20.708" fill="#2f2e41" x="1071" y="1252"><svg xmlns="http://www.w3.org/2000/svg" xmlns:xlink="http://www.w3.org/1999/xlink" width="18" height="21" viewBox="0.024 0.339 17.164 19.746"><path paint-order="stroke fill markers" fill-rule="evenodd" d="M14.822 1.211a5.16 5.16 0 0 0-.715-.393A5.269 5.269 0 0 0 7.672 2.48l-7.33 9.94a2.102 2.102 0 0 0 .701 2.912l6.674 4.187.084.051.335.21a2.117 2.117 0 0 0 2.902-.71l5.176-10.274.087-.17.003-.004.319-.64a5.27 5.27 0 0 0-1.8-6.77z"/></svg></svg><svg width="10" height="28" xmlns="http://www.w3.org/2000/svg" xmlns:xlink="http://www.w3.org/1999/xlink" xmlns:svgjs="http://svgjs.com/svgjs" viewBox="0.393 0 9.214 28" fill="#16213e" x="1039" y="1295"><svg xmlns="http://www.w3.org/2000/svg" xmlns:xlink="http://www.w3.org/1999/xlink" width="10" height="28" viewBox="0.607 0.655 8.674 26.359"><path paint-order="stroke fill markers" fill-rule="evenodd" d="M.607.655v24.25a2.113 2.113 0 0 0 2.11 2.11H7.17a2.112 2.112 0 0 0 2.11-2.11V.655H.607z"/></svg></svg><svg width="55" height="27" xmlns="http://www.w3.org/2000/svg" xmlns:xlink="http://www.w3.org/1999/xlink" xmlns:svgjs="http://svgjs.com/svgjs" viewBox="0 0.166 55 26.669" fill="#3f3d56" x="1021" y="1269"><svg xmlns="http://www.w3.org/2000/svg" xmlns:xlink="http://www.w3.org/1999/xlink" width="55" height="27" viewBox="0.467 0.114 54.11 26.237"><path paint-order="stroke fill markers" fill-rule="evenodd" d="M53.127 22.818H43.22V3.119A3.009 3.009 0 0 0 40.215.114H3.475A3.009 3.009 0 0 0 .467 3.12v20.227a3.009 3.009 0 0 0 3.008 3.005h49.652c.052 0 .1-.003.149-.006.045-.003.09-.013.135-.02a1.454 1.454 0 0 0 1.166-1.423v-.635c0-.8-.649-1.449-1.45-1.449zm0 2.89H3.475a2.365 2.365 0 0 1-2.364-2.362V3.12A2.365 2.365 0 0 1 3.475.76h36.74a2.364 2.364 0 0 1 2.361 2.36v20.343h10.551c.445 0 .806.36.806.805v.635c0 .445-.36.805-.805.805z"/></svg></svg><svg width="6" height="6" xmlns="http://www.w3.org/2000/svg" xmlns:xlink="http://www.w3.org/1999/xlink" xmlns:svgjs="http://svgjs.com/svgjs" fill="#16213e" x="1038" y="1279"><svg xmlns="http://www.w3.org/2000/svg" xmlns:xlink="http://www.w3.org/1999/xlink" width="6" height="6" viewBox="0.954 0.612 4.954 4.954"><path paint-order="stroke fill markers" fill-rule="evenodd" d="M3.43 5.565A2.475 2.475 0 0 1 .955 3.088 2.474 2.474 0 0 1 3.43.612a2.474 2.474 0 0 1 2.477 2.476A2.475 2.475 0 0 1 3.43 5.565z"/></svg></svg><svg width="35" height="36" xmlns="http://www.w3.org/2000/svg" xmlns:xlink="http://www.w3.org/1999/xlink" xmlns:svgjs="http://svgjs.com/svgjs" viewBox="0 0.5 35 35" fill="#16213e" x="835" y="1204"><svg xmlns="http://www.w3.org/2000/svg" xmlns:xlink="http://www.w3.org/1999/xlink" width="35" height="36" viewBox="0.056 0.778 34.476 34.475"><path paint-order="stroke fill markers" fill-rule="evenodd" d="M17.293 35.253C7.761 35.253.056 27.548.056 18.015.056 8.483 7.76.778 17.293.778c9.533 0 17.238 7.705 17.238 17.237 0 9.533-7.705 17.238-17.238 17.238z"/></svg></svg><svg width="10" height="45" xmlns="http://www.w3.org/2000/svg" xmlns:xlink="http://www.w3.org/1999/xlink" xmlns:svgjs="http://svgjs.com/svgjs" viewBox="0.408 0 9.185 45" fill="#2f2e41" x="842" y="1289"><svg xmlns="http://www.w3.org/2000/svg" xmlns:xlink="http://www.w3.org/1999/xlink" width="10" height="45" viewBox="0.086 0.319 8.941 43.807"><path paint-order="stroke fill markers" fill-rule="evenodd" d="M6.933.32H2.18A2.096 2.096 0 0 0 .086 2.412v39.62a2.096 2.096 0 0 0 2.093 2.093h4.754a2.096 2.096 0 0 0 2.094-2.093V2.413A2.096 2.096 0 0 0 6.933.319z"/></svg></svg><svg width="10" height="45" xmlns="http://www.w3.org/2000/svg" xmlns:xlink="http://www.w3.org/1999/xlink" xmlns:svgjs="http://svgjs.com/svgjs" viewBox="0.408 0 9.185 45" fill="#2f2e41" x="852" y="1289"><svg xmlns="http://www.w3.org/2000/svg" xmlns:xlink="http://www.w3.org/1999/xlink" width="10" height="45" viewBox="0.131 0.319 8.941 43.807"><path paint-order="stroke fill markers" fill-rule="evenodd" d="M6.979.32H2.225A2.096 2.096 0 0 0 .131 2.412v39.62a2.096 2.096 0 0 0 2.094 2.093h4.754a2.094 2.094 0 0 0 2.093-2.094V2.412A2.094 2.094 0 0 0 6.98.32z"/></svg></svg><svg width="27" height="51" xmlns="http://www.w3.org/2000/svg" xmlns:xlink="http://www.w3.org/1999/xlink" xmlns:svgjs="http://svgjs.com/svgjs" viewBox="0.285 0 26.429 51" fill="#2f2e41" x="839" y="1244"><svg xmlns="http://www.w3.org/2000/svg" xmlns:xlink="http://www.w3.org/1999/xlink" width="27" height="51" viewBox="0.042 0.583 26.112 50.387"><path paint-order="stroke fill markers" fill-rule="evenodd" d="M23.422 5.65a13.055 13.055 0 0 0-23.38 7.978v35.088c-.001.107.007.214.026.319a2.253 2.253 0 0 0 2.229 1.936h21.602a2.259 2.259 0 0 0 2.254-2.255V13.628a12.965 12.965 0 0 0-2.731-7.978z"/></svg></svg><svg width="5" height="12" xmlns="http://www.w3.org/2000/svg" xmlns:xlink="http://www.w3.org/1999/xlink" xmlns:svgjs="http://svgjs.com/svgjs" viewBox="0.058 0 4.884 12" fill="#2f2e41" x="868" y="1218"><svg xmlns="http://www.w3.org/2000/svg" xmlns:xlink="http://www.w3.org/1999/xlink" width="5" height="12" viewBox="0.057 0.735 4.463 10.966"><path paint-order="stroke fill markers" fill-rule="evenodd" d="M.074 11.701l-.017-.644c1.198-.033 2.255-.108 3.048-.688.456-.352.736-.884.767-1.459a1.132 1.132 0 0 0-.37-.932c-.528-.445-1.376-.301-1.994-.018l-.533.244L1.997.735l.638.088-.87 6.353c.84-.247 1.619-.14 2.152.31.415.362.636.897.599 1.447a2.62 2.62 0 0 1-1.03 1.956c-1.02.745-2.346.783-3.412.812z"/></svg></svg><svg width="5" height="1" xmlns="http://www.w3.org/2000/svg" xmlns:xlink="http://www.w3.org/1999/xlink" xmlns:svgjs="http://svgjs.com/svgjs" viewBox="0 0.036 5 0.928" fill="#2f2e41" x="861" y="1219"><svg xmlns="http://www.w3.org/2000/svg" xmlns:xlink="http://www.w3.org/1999/xlink" width="5" height="1" viewBox="0.616 0.272 3.469 0.644"><path paint-order="stroke fill markers" fill-rule="evenodd" d="M.616.272h3.47v.644H.616V.272z"/></svg></svg><svg width="11" height="45" xmlns="http://www.w3.org/2000/svg" xmlns:xlink="http://www.w3.org/1999/xlink" xmlns:svgjs="http://svgjs.com/svgjs" viewBox="0.087 0 10.825 45" fill="#16213e" x="837" y="1249"><svg xmlns="http://www.w3.org/2000/svg" xmlns:xlink="http://www.w3.org/1999/xlink" width="11" height="45" viewBox="0.214 0.269 10.578 43.972"><path paint-order="stroke fill markers" fill-rule="evenodd" d="M10.239 1.14c-.376-.41-.9-.652-1.456-.673L5.037.312 4.036.27a2.097 2.097 0 0 0-2.181 2.004l-.593 14.275L.216 41.86a2.097 2.097 0 0 0 2.003 2.18l2.867.12 1.884.078a2.09 2.09 0 0 0 1.504-.551c.41-.376.653-.9.673-1.456l.126-3.018.924-22.324.593-14.246a2.093 2.093 0 0 0-.551-1.504z"/></svg></svg><svg width="13" height="20" xmlns="http://www.w3.org/2000/svg" xmlns:xlink="http://www.w3.org/1999/xlink" xmlns:svgjs="http://svgjs.com/svgjs" viewBox="0.229 0 12.542 20" fill="#2f2e41" x="837" y="1246"><svg xmlns="http://www.w3.org/2000/svg" xmlns:xlink="http://www.w3.org/1999/xlink" width="13" height="20" viewBox="0.319 0.362 11.917 19.003"><path paint-order="stroke fill markers" fill-rule="evenodd" d="M7.495.488A5.966 5.966 0 0 0 .319 6.32v10.951c.001.704.356 1.36.943 1.749.236.155.502.26.78.309.122.023.246.035.37.035h7.73c.019.001.037 0 .055-.003a2.092 2.092 0 0 0 2.039-2.09V6.321A5.968 5.968 0 0 0 7.495.488z"/></svg></svg><svg width="36" height="35" xmlns="http://www.w3.org/2000/svg" xmlns:xlink="http://www.w3.org/1999/xlink" xmlns:svgjs="http://svgjs.com/svgjs" viewBox="0 0.285 36 34.43" fill="#16213e" x="854" y="1247"><svg xmlns="http://www.w3.org/2000/svg" xmlns:xlink="http://www.w3.org/1999/xlink" width="36" height="35" viewBox="0.818 0.968 34.617 33.108"><path paint-order="stroke fill markers" fill-rule="evenodd" d="M31.78 30.955a2.41 2.41 0 0 1-1.192-2.87l1.833-5.833-.535-.444L17.82 10.17 8.422 2.396l-1.143-.947a2.093 2.093 0 0 0-2.948.277L1.301 5.39a2.09 2.09 0 0 0 .277 2.947l9.575 7.923 1.089.899 19.863 16.433c.757.629 1.85.644 2.625.038a1.9 1.9 0 0 0 .283-.274.442.442 0 0 0 .039-.041l.383-.464-3.655-1.897z"/></svg></svg><svg width="20" height="19" xmlns="http://www.w3.org/2000/svg" xmlns:xlink="http://www.w3.org/1999/xlink" xmlns:svgjs="http://svgjs.com/svgjs" viewBox="0 0.025 20 18.949" fill="#2f2e41" x="852" y="1246"><svg xmlns="http://www.w3.org/2000/svg" xmlns:xlink="http://www.w3.org/1999/xlink" width="20" height="19" viewBox="0.936 0.357 18.975 17.978"><path paint-order="stroke fill markers" fill-rule="evenodd" d="M19.144 8.64L10.67 1.706a5.959 5.959 0 1 0-7.55 9.22l8.475 6.935c.77.63 1.876.632 2.647.004.112-.087.212-.186.3-.297l4.895-5.981a2.07 2.07 0 0 0 .384-.712 2.105 2.105 0 0 0-.677-2.235z"/></svg></svg><svg width="23" height="28" xmlns="http://www.w3.org/2000/svg" xmlns:xlink="http://www.w3.org/1999/xlink" xmlns:svgjs="http://svgjs.com/svgjs" viewBox="0.331 0 22.338 28" fill="#2f2e41" x="845" y="1197"><svg xmlns="http://www.w3.org/2000/svg" xmlns:xlink="http://www.w3.org/1999/xlink" width="23" height="28" viewBox="0.658 0.532 21.647 27.134"><path paint-order="stroke fill markers" fill-rule="evenodd" d="M2.972 27.665c-.898-1.5-1.6-3.152-1.267-4.928.298-1.587 1.44-2.823 3.081-2.985.989-.097 1.973.167 2.939.338.791.14 1.596.192 2.399.156 1.615-.074 3.199-.475 4.654-1.18a11.424 11.424 0 0 0 6.138-7.193c.98-3.567.252-7.617-2.074-10.52l.807-.213-1.051 3.454a.488.488 0 0 1-.71.289A16.64 16.64 0 0 0 4.94 2.813c-1.235.31-2.428.769-3.553 1.366-.549.292-1.038-.542-.488-.834a17.617 17.617 0 0 1 13.822-1.06 16.815 16.815 0 0 1 3.655 1.763l-.71.289L18.717.883a.487.487 0 0 1 .808-.213 12.95 12.95 0 0 1 2.654 9.818 12.22 12.22 0 0 1-5.291 8.477 13.03 13.03 0 0 1-9.841 1.978C6.1 20.76 5.029 20.5 4.1 20.897a2.545 2.545 0 0 0-1.364 1.677c-.525 1.782.37 3.473 1.283 4.955l-1.048.136z"/></svg></svg><svg width="30" height="35" xmlns="http://www.w3.org/2000/svg" xmlns:xlink="http://www.w3.org/1999/xlink" xmlns:svgjs="http://svgjs.com/svgjs" viewBox="0.55 0 28.9 35" fill="#3f3d56" x="885" y="1252"><svg xmlns="http://www.w3.org/2000/svg" xmlns:xlink="http://www.w3.org/1999/xlink" width="30" height="35" viewBox="0.591 0.232 28.557 34.584"><path paint-order="stroke fill markers" fill-rule="evenodd" d="M27.618 9.864L11.684.643a3.062 3.062 0 0 0-4.45 1.73L2.646 16.945.733 23.031a3.055 3.055 0 0 0 1.51 3.633l3.531 1.832 11.518 5.975a3.05 3.05 0 0 0 2.473.155l.023-.01a3.076 3.076 0 0 0 1.772-1.765l7.382-19.245a3.047 3.047 0 0 0-1.324-3.742zm.721 3.514l-7.382 19.244a2.425 2.425 0 0 1-1.401 1.392l-.016.006a2.424 2.424 0 0 1-1.952-.119l-11.392-5.91-3.656-1.897a2.41 2.41 0 0 1-1.191-2.87l1.832-5.833L7.845 2.565A2.42 2.42 0 0 1 11.36 1.2l15.934 9.221a2.406 2.406 0 0 1 1.046 2.957z"/></svg></svg><svg width="14" height="8" xmlns="http://www.w3.org/2000/svg" xmlns:xlink="http://www.w3.org/1999/xlink" xmlns:svgjs="http://svgjs.com/svgjs" viewBox="0.5 0 13 8" fill="#16213e" x="895" y="1260"><svg xmlns="http://www.w3.org/2000/svg" xmlns:xlink="http://www.w3.org/1999/xlink" width="14" height="8" viewBox="0.811 0.025 12.562 7.73"><path paint-order="stroke fill markers" fill-rule="evenodd" d="M12.406 7.756a.963.963 0 0 1-.462-.118L1.315 1.84A.966.966 0 0 1 2.241.144L12.869 5.94a.967.967 0 0 1-.463 1.815z"/></svg></svg><svg width="14" height="9" xmlns="http://www.w3.org/2000/svg" xmlns:xlink="http://www.w3.org/1999/xlink" xmlns:svgjs="http://svgjs.com/svgjs" viewBox="0 0.192 14 8.616" fill="#16213e" x="893" y="1264"><svg xmlns="http://www.w3.org/2000/svg" xmlns:xlink="http://www.w3.org/1999/xlink" width="14" height="9" viewBox="0.834 0.31 12.562 7.73"><path paint-order="stroke fill markers" fill-rule="evenodd" d="M12.428 8.04a.96.96 0 0 1-.462-.118L1.337 2.125A.966.966 0 0 1 2.263.428l10.629 5.798a.966.966 0 0 1-.464 1.814z"/></svg></svg><svg width="13" height="9" xmlns="http://www.w3.org/2000/svg" xmlns:xlink="http://www.w3.org/1999/xlink" xmlns:svgjs="http://svgjs.com/svgjs" viewBox="0 0.5 13 8" fill="#16213e" x="892" y="1268"><svg xmlns="http://www.w3.org/2000/svg" xmlns:xlink="http://www.w3.org/1999/xlink" width="13" height="9" viewBox="0.186 0.924 12.562 7.73"><path paint-order="stroke fill markers" fill-rule="evenodd" d="M11.78 8.654a.96.96 0 0 1-.462-.118L.69 2.74a.966.966 0 0 1 .926-1.697L12.244 6.84a.966.966 0 0 1-.464 1.814z"/></svg></svg><svg width="50" height="63" xmlns="http://www.w3.org/2000/svg" xmlns:xlink="http://www.w3.org/1999/xlink" xmlns:svgjs="http://svgjs.com/svgjs" viewBox="0 0.522 50 61.957" fill="#3f3d56" x="971" y="1120"><svg xmlns="http://www.w3.org/2000/svg" xmlns:xlink="http://www.w3.org/1999/xlink" width="50" height="63" viewBox="0.435 0.672 49.528 61.371"><path paint-order="stroke fill markers" fill-rule="evenodd" d="M47.54 62.043H2.857a2.425 2.425 0 0 1-2.422-2.422V3.095A2.425 2.425 0 0 1 2.857.672H47.54a2.425 2.425 0 0 1 2.422 2.423V59.62a2.425 2.425 0 0 1-2.422 2.422zM2.857 1.21A1.886 1.886 0 0 0 .973 3.094v56.527a1.886 1.886 0 0 0 1.884 1.884H47.54a1.886 1.886 0 0 0 1.884-1.884V3.094A1.886 1.886 0 0 0 47.54 1.21H2.857z"/></svg></svg><svg width="13" height="15" xmlns="http://www.w3.org/2000/svg" xmlns:xlink="http://www.w3.org/1999/xlink" xmlns:svgjs="http://svgjs.com/svgjs" viewBox="0 0.061 13 14.878" fill="#16213e" x="981" y="1133"><svg xmlns="http://www.w3.org/2000/svg" xmlns:xlink="http://www.w3.org/1999/xlink" width="13" height="15" viewBox="0.104 0.814 12.258 14.029"><path paint-order="stroke fill markers" fill-rule="evenodd" d="M11.151 14.843H1.316C.647 14.842.106 14.3.104 13.63V2.025C.105 1.356.647.815 1.316.814h9.835c.669 0 1.21.542 1.212 1.21v11.607c-.001.669-.543 1.21-1.212 1.212z"/></svg></svg><svg width="13" height="15" xmlns="http://www.w3.org/2000/svg" xmlns:xlink="http://www.w3.org/1999/xlink" xmlns:svgjs="http://svgjs.com/svgjs" viewBox="0 0.061 13 14.879" fill="#ccc" x="1000" y="1139"><svg xmlns="http://www.w3.org/2000/svg" xmlns:xlink="http://www.w3.org/1999/xlink" width="13" height="15" viewBox="0.663 0.197 12.258 14.03"><path paint-order="stroke fill markers" fill-rule="evenodd" d="M11.71 14.226H1.874c-.669 0-1.21-.542-1.211-1.211V1.408c0-.669.542-1.21 1.211-1.211h9.836c.668 0 1.21.542 1.21 1.211v11.607c0 .669-.542 1.21-1.21 1.211z"/></svg></svg><svg width="14" height="15" xmlns="http://www.w3.org/2000/svg" xmlns:xlink="http://www.w3.org/1999/xlink" xmlns:svgjs="http://svgjs.com/svgjs" viewBox="0.447 0 13.107 15" fill="#1a1a2e" x="984" y="1156"><svg xmlns="http://www.w3.org/2000/svg" xmlns:xlink="http://www.w3.org/1999/xlink" width="14" height="15" viewBox="0.961 0.456 12.258 14.029"><path paint-order="stroke fill markers" fill-rule="evenodd" d="M12.008 14.485H2.172c-.668-.001-1.21-.543-1.21-1.212V1.667c0-.669.542-1.21 1.21-1.211h9.836c.668 0 1.21.542 1.211 1.21v11.608c0 .668-.543 1.21-1.211 1.21z"/></svg></svg><svg width="50" height="63" xmlns="http://www.w3.org/2000/svg" xmlns:xlink="http://www.w3.org/1999/xlink" xmlns:svgjs="http://svgjs.com/svgjs" viewBox="0 0.522 50 61.956" fill="#3f3d56" x="909" y="1166"><svg xmlns="http://www.w3.org/2000/svg" xmlns:xlink="http://www.w3.org/1999/xlink" width="50" height="63" viewBox="0.275 0.684 49.527 61.37"><path paint-order="stroke fill markers" fill-rule="evenodd" d="M49.618 2.181A2.448 2.448 0 0 0 47.38.684H2.697A2.423 2.423 0 0 0 .275 3.106v56.526a2.423 2.423 0 0 0 2.422 2.422H47.38a2.425 2.425 0 0 0 2.422-2.422V3.106a2.378 2.378 0 0 0-.184-.925zm-.354 57.451a1.886 1.886 0 0 1-1.884 1.884H2.697a1.885 1.885 0 0 1-1.885-1.884V3.106a1.887 1.887 0 0 1 1.885-1.884H47.38a1.893 1.893 0 0 1 1.884 1.884v56.526z"/></svg></svg><svg width="16" height="3" xmlns="http://www.w3.org/2000/svg" xmlns:xlink="http://www.w3.org/1999/xlink" xmlns:svgjs="http://svgjs.com/svgjs" viewBox="0 0.397 16 2.207" fill="#3f3d56" x="935" y="1177"><svg xmlns="http://www.w3.org/2000/svg" xmlns:xlink="http://www.w3.org/1999/xlink" width="16" height="3" viewBox="0.044 0.722 15.612 2.153"><path paint-order="stroke fill markers" fill-rule="evenodd" d="M14.58 2.875H1.12a1.077 1.077 0 0 1 0-2.153H14.58a1.077 1.077 0 0 1 0 2.153z"/></svg></svg><svg width="16" height="3" xmlns="http://www.w3.org/2000/svg" xmlns:xlink="http://www.w3.org/1999/xlink" xmlns:svgjs="http://svgjs.com/svgjs" viewBox="0 0.397 16 2.207" fill="#3f3d56" x="935" y="1183"><svg xmlns="http://www.w3.org/2000/svg" xmlns:xlink="http://www.w3.org/1999/xlink" width="16" height="3" viewBox="0.044 0.502 15.612 2.153"><path paint-order="stroke fill markers" fill-rule="evenodd" d="M14.58 2.656H1.12a1.076 1.076 0 1 1 0-2.154H14.58a1.077 1.077 0 0 1 0 2.154z"/></svg></svg><svg width="13" height="15" xmlns="http://www.w3.org/2000/svg" xmlns:xlink="http://www.w3.org/1999/xlink" xmlns:svgjs="http://svgjs.com/svgjs" viewBox="0 0.061 13 14.879" fill="#16213e" x="917" y="1174"><svg xmlns="http://www.w3.org/2000/svg" xmlns:xlink="http://www.w3.org/1999/xlink" width="13" height="15" viewBox="0.74 0.722 12.258 14.03"><path paint-order="stroke fill markers" fill-rule="evenodd" d="M11.786 14.752H1.951C1.282 14.75.74 14.209.74 13.54V1.934c0-.67.542-1.21 1.21-1.212h9.836c.67.001 1.211.543 1.212 1.212V13.54c0 .669-.543 1.211-1.212 1.212z"/></svg></svg><svg width="34" height="3" xmlns="http://www.w3.org/2000/svg" xmlns:xlink="http://www.w3.org/1999/xlink" xmlns:svgjs="http://svgjs.com/svgjs" viewBox="0 0.376 34 2.248" fill="#ccc" x="917" y="1195"><svg xmlns="http://www.w3.org/2000/svg" xmlns:xlink="http://www.w3.org/1999/xlink" width="34" height="3" viewBox="0.75 0.339 32.57 2.154"><path paint-order="stroke fill markers" fill-rule="evenodd" d="M32.243 2.492H1.827a1.077 1.077 0 0 1 0-2.153h30.416a1.077 1.077 0 0 1 0 2.153z"/></svg></svg><svg width="34" height="3" xmlns="http://www.w3.org/2000/svg" xmlns:xlink="http://www.w3.org/1999/xlink" xmlns:svgjs="http://svgjs.com/svgjs" viewBox="0 0.376 34 2.248" fill="#ccc" x="917" y="1201"><svg xmlns="http://www.w3.org/2000/svg" xmlns:xlink="http://www.w3.org/1999/xlink" width="34" height="3" viewBox="0.75 0.119 32.57 2.154"><path paint-order="stroke fill markers" fill-rule="evenodd" d="M32.243 2.273H1.827a1.077 1.077 0 0 1 0-2.154h30.416a1.077 1.077 0 0 1 0 2.154z"/></svg></svg><svg width="34" height="4" xmlns="http://www.w3.org/2000/svg" xmlns:xlink="http://www.w3.org/1999/xlink" xmlns:svgjs="http://svgjs.com/svgjs" viewBox="0 0.876 34 2.248" fill="#ccc" x="917" y="1206"><svg xmlns="http://www.w3.org/2000/svg" xmlns:xlink="http://www.w3.org/1999/xlink" width="34" height="4" viewBox="0.75 0.9 32.57 2.153"><path paint-order="stroke fill markers" fill-rule="evenodd" d="M32.243 3.053H1.827a1.077 1.077 0 0 1 0-2.153h30.416a1.076 1.076 0 1 1 0 2.153z"/></svg></svg><svg width="34" height="3" xmlns="http://www.w3.org/2000/svg" xmlns:xlink="http://www.w3.org/1999/xlink" xmlns:svgjs="http://svgjs.com/svgjs" viewBox="0 0.376 34 2.248" fill="#ccc" x="917" y="1212"><svg xmlns="http://www.w3.org/2000/svg" xmlns:xlink="http://www.w3.org/1999/xlink" width="34" height="3" viewBox="0.75 0.68 32.57 2.153"><path paint-order="stroke fill markers" fill-rule="evenodd" d="M32.243 2.834H1.827a1.077 1.077 0 1 1 0-2.154h30.416a1.077 1.077 0 0 1 0 2.154z"/></svg></svg><svg width="34" height="3" xmlns="http://www.w3.org/2000/svg" xmlns:xlink="http://www.w3.org/1999/xlink" xmlns:svgjs="http://svgjs.com/svgjs" viewBox="0 0.376 34 2.248" fill="#ccc" x="917" y="1218"><svg xmlns="http://www.w3.org/2000/svg" xmlns:xlink="http://www.w3.org/1999/xlink" width="34" height="3" viewBox="0.75 0.461 32.57 2.153"><path paint-order="stroke fill markers" fill-rule="evenodd" d="M32.243 2.614H1.827a1.076 1.076 0 1 1 0-2.153h30.416a1.077 1.077 0 0 1 0 2.153z"/></svg></svg><svg width="27" height="26" xmlns="http://www.w3.org/2000/svg" xmlns:xlink="http://www.w3.org/1999/xlink" xmlns:svgjs="http://svgjs.com/svgjs" viewBox="0 0.128 27 25.744" fill="#e6e6e6" x="968" y="1189"><svg xmlns="http://www.w3.org/2000/svg" xmlns:xlink="http://www.w3.org/1999/xlink" width="27" height="26" viewBox="0.205 0.933 25.843 24.641"><path paint-order="stroke fill markers" fill-rule="evenodd" d="M.205 25.184L25.677.933l.371.39L.576 25.574l-.371-.39z"/></svg></svg><svg width="4" height="5" xmlns="http://www.w3.org/2000/svg" xmlns:xlink="http://www.w3.org/1999/xlink" xmlns:svgjs="http://svgjs.com/svgjs" viewBox="0 0.504 4 3.993" fill="#e6e6e6" x="967" y="1211"><svg xmlns="http://www.w3.org/2000/svg" xmlns:xlink="http://www.w3.org/1999/xlink" width="4" height="5" viewBox="0.667 0.866 3.233 3.227"><path paint-order="stroke fill markers" fill-rule="evenodd" d="M.667 4.093L3.9 4.055l-.006-.539-2.655.032.163-2.65L.864.867.667 4.093z"/></svg></svg><svg width="4" height="4" xmlns="http://www.w3.org/2000/svg" xmlns:xlink="http://www.w3.org/1999/xlink" xmlns:svgjs="http://svgjs.com/svgjs" viewBox="0 0.003 4 3.994" fill="#e6e6e6" x="991" y="1189"><svg xmlns="http://www.w3.org/2000/svg" xmlns:xlink="http://www.w3.org/1999/xlink" width="4" height="4" viewBox="0.275 0.54 3.232 3.227"><path paint-order="stroke fill markers" fill-rule="evenodd" d="M3.508.54L3.31 3.767l-.538-.032.162-2.65-2.654.032L.275.578 3.508.54z"/></svg></svg><svg width="7" height="7" xmlns="http://www.w3.org/2000/svg" xmlns:xlink="http://www.w3.org/1999/xlink" xmlns:svgjs="http://svgjs.com/svgjs" fill="#e6e6e6" x="978" y="1199"><svg xmlns="http://www.w3.org/2000/svg" xmlns:xlink="http://www.w3.org/1999/xlink" width="7" height="7" viewBox="0.131 0.349 5.922 5.922"><path paint-order="stroke fill markers" fill-rule="evenodd" d="M3.092 6.27a2.958 2.958 0 0 1-2.96-2.96A2.958 2.958 0 0 1 3.091.349a2.958 2.958 0 0 1 2.96 2.96 2.958 2.958 0 0 1-2.96 2.961z"/></svg></svg><svg width="27" height="26" xmlns="http://www.w3.org/2000/svg" xmlns:xlink="http://www.w3.org/1999/xlink" xmlns:svgjs="http://svgjs.com/svgjs" viewBox="0 0.128 27 25.744" fill="#e6e6e6" x="933" y="1130"><svg xmlns="http://www.w3.org/2000/svg" xmlns:xlink="http://www.w3.org/1999/xlink" width="27" height="26" viewBox="0.224 0.886 25.843 24.641"><path paint-order="stroke fill markers" fill-rule="evenodd" d="M.224 25.137L25.696.886l.372.39L.595 25.526l-.37-.389z"/></svg></svg><svg width="4" height="4" xmlns="http://www.w3.org/2000/svg" xmlns:xlink="http://www.w3.org/1999/xlink" xmlns:svgjs="http://svgjs.com/svgjs" viewBox="0 0.004 4 3.993" fill="#e6e6e6" x="932" y="1152"><svg xmlns="http://www.w3.org/2000/svg" xmlns:xlink="http://www.w3.org/1999/xlink" width="4" height="4" viewBox="0.752 0.507 3.233 3.227"><path paint-order="stroke fill markers" fill-rule="evenodd" d="M.752 3.734l3.234-.038-.006-.54-2.655.033.162-2.65L.95.507.752 3.734z"/></svg></svg><svg width="4" height="4" xmlns="http://www.w3.org/2000/svg" xmlns:xlink="http://www.w3.org/1999/xlink" xmlns:svgjs="http://svgjs.com/svgjs" viewBox="0 0.003 4 3.993" fill="#e6e6e6" x="956" y="1130"><svg xmlns="http://www.w3.org/2000/svg" xmlns:xlink="http://www.w3.org/1999/xlink" width="4" height="4" viewBox="0.361 0.677 3.232 3.227"><path paint-order="stroke fill markers" fill-rule="evenodd" d="M3.593.677l-.196 3.227-.538-.032.162-2.65-2.654.032L.36.716 3.593.677z"/></svg></svg><svg width="7" height="7" xmlns="http://www.w3.org/2000/svg" xmlns:xlink="http://www.w3.org/1999/xlink" xmlns:svgjs="http://svgjs.com/svgjs" fill="#e6e6e6" x="943" y="1140"><svg xmlns="http://www.w3.org/2000/svg" xmlns:xlink="http://www.w3.org/1999/xlink" width="7" height="7" viewBox="0.209 0.245 5.922 5.922"><path paint-order="stroke fill markers" fill-rule="evenodd" d="M3.17 6.167A2.958 2.958 0 0 1 .21 3.206 2.958 2.958 0 0 1 3.17.245a2.958 2.958 0 0 1 2.961 2.96 2.958 2.958 0 0 1-2.96 2.962z"/></svg></svg><svg width="2" height="4" xmlns="http://www.w3.org/2000/svg" xmlns:xlink="http://www.w3.org/1999/xlink" xmlns:svgjs="http://svgjs.com/svgjs" viewBox="0.556 0 0.889 4" fill="#3f3d56" x="1063" y="1293"><svg xmlns="http://www.w3.org/2000/svg" width="2" height="4" viewBox="0.566 0.107 0.644 2.899"><path paint-order="stroke fill markers" fill-rule="evenodd" d="M.566.107h.644v2.899H.566v-2.9z"/></svg></svg></svg>