<svg width="203" height="213" xmlns="http://www.w3.org/2000/svg" xmlns:xlink="http://www.w3.org/1999/xlink" xmlns:svgjs="http://svgjs.com/svgjs" viewBox="275 1121 203 213"><svg width="28" height="27" xmlns="http://www.w3.org/2000/svg" xmlns:xlink="http://www.w3.org/1999/xlink" xmlns:svgjs="http://svgjs.com/svgjs" viewBox="0 0.151 28 26.697" fill="#e6e6e6" x="416" y="1147"><svg xmlns="http://www.w3.org/2000/svg" xmlns:xlink="http://www.w3.org/1999/xlink" width="28" height="27" viewBox="0.106 0.485 27.055 25.797"><path paint-order="stroke fill markers" fill-rule="evenodd" d="M.106.893L.495.485 27.16 25.873l-.388.408L.106.893z"/></svg></svg><svg width="4" height="4" xmlns="http://www.w3.org/2000/svg" xmlns:xlink="http://www.w3.org/1999/xlink" xmlns:svgjs="http://svgjs.com/svgjs" viewBox="0 0.004 4 3.992" fill="#e6e6e6" x="440" y="1170"><svg xmlns="http://www.w3.org/2000/svg" xmlns:xlink="http://www.w3.org/1999/xlink" width="4" height="4" viewBox="0.027 0.12 3.385 3.378"><path paint-order="stroke fill markers" fill-rule="evenodd" d="M3.205.12l-.563.034.17 2.773-2.78-.033-.005.564 3.385.04L3.205.12z"/></svg></svg><svg width="5" height="4" xmlns="http://www.w3.org/2000/svg" xmlns:xlink="http://www.w3.org/1999/xlink" xmlns:svgjs="http://svgjs.com/svgjs" viewBox="0.497 0 4.006 4" fill="#e6e6e6" x="415" y="1147"><svg xmlns="http://www.w3.org/2000/svg" xmlns:xlink="http://www.w3.org/1999/xlink" width="5" height="4" viewBox="0.859 0.266 3.384 3.379"><path paint-order="stroke fill markers" fill-rule="evenodd" d="M4.243.307L4.237.87 1.458.837l.17 2.774-.563.034L.859.266l3.384.04z"/></svg></svg><svg width="7" height="7" xmlns="http://www.w3.org/2000/svg" xmlns:xlink="http://www.w3.org/1999/xlink" xmlns:svgjs="http://svgjs.com/svgjs" fill="#e6e6e6" x="426" y="1157"><svg xmlns="http://www.w3.org/2000/svg" xmlns:xlink="http://www.w3.org/1999/xlink" width="7" height="7" viewBox="0.535 0.283 6.2 6.199"><path paint-order="stroke fill markers" fill-rule="evenodd" d="M3.635 6.482a3.097 3.097 0 0 1-3.1-3.1c0-1.713 1.386-3.099 3.1-3.099 1.714 0 3.1 1.386 3.1 3.1 0 1.714-1.386 3.1-3.1 3.1z"/></svg></svg><svg width="28" height="27" xmlns="http://www.w3.org/2000/svg" xmlns:xlink="http://www.w3.org/1999/xlink" xmlns:svgjs="http://svgjs.com/svgjs" viewBox="0 0.151 28 26.697" fill="#e6e6e6" x="310" y="1147"><svg xmlns="http://www.w3.org/2000/svg" xmlns:xlink="http://www.w3.org/1999/xlink" width="28" height="27" viewBox="0.253 0.485 27.055 25.797"><path paint-order="stroke fill markers" fill-rule="evenodd" d="M.253 25.873L26.92.485l.389.408L.642 26.28l-.389-.408z"/></svg></svg><svg width="4" height="4" xmlns="http://www.w3.org/2000/svg" xmlns:xlink="http://www.w3.org/1999/xlink" xmlns:svgjs="http://svgjs.com/svgjs" viewBox="0 0.004 4 3.992" fill="#e6e6e6" x="310" y="1170"><svg xmlns="http://www.w3.org/2000/svg" xmlns:xlink="http://www.w3.org/1999/xlink" width="4" height="4" viewBox="0.005 0.12 3.385 3.378"><path paint-order="stroke fill markers" fill-rule="evenodd" d="M.005 3.498l3.385-.04-.006-.564-2.78.033.17-2.773L.213.12.005 3.498z"/></svg></svg><svg width="4" height="4" xmlns="http://www.w3.org/2000/svg" xmlns:xlink="http://www.w3.org/1999/xlink" xmlns:svgjs="http://svgjs.com/svgjs" viewBox="0 0.003 4 3.993" fill="#e6e6e6" x="334" y="1147"><svg xmlns="http://www.w3.org/2000/svg" xmlns:xlink="http://www.w3.org/1999/xlink" width="4" height="4" viewBox="0.173 0.266 3.384 3.379"><path paint-order="stroke fill markers" fill-rule="evenodd" d="M3.558.266l-.206 3.379-.563-.034.17-2.774L.178.87.173.307l3.385-.04z"/></svg></svg><svg width="7" height="7" xmlns="http://www.w3.org/2000/svg" xmlns:xlink="http://www.w3.org/1999/xlink" xmlns:svgjs="http://svgjs.com/svgjs" fill="#e6e6e6" x="320" y="1157"><svg xmlns="http://www.w3.org/2000/svg" xmlns:xlink="http://www.w3.org/1999/xlink" width="7" height="7" viewBox="0.682 0.283 6.2 6.199"><path paint-order="stroke fill markers" fill-rule="evenodd" d="M3.782 6.482a3.097 3.097 0 0 1-3.1-3.1c0-1.713 1.386-3.099 3.1-3.099 1.714 0 3.1 1.386 3.1 3.1 0 1.714-1.386 3.1-3.1 3.1z"/></svg></svg><svg width="53" height="65" xmlns="http://www.w3.org/2000/svg" xmlns:xlink="http://www.w3.org/1999/xlink" xmlns:svgjs="http://svgjs.com/svgjs" viewBox="0.272 0 52.456 65" fill="#3f3d56" x="350" y="1121"><svg xmlns="http://www.w3.org/2000/svg" xmlns:xlink="http://www.w3.org/1999/xlink" width="53" height="65" viewBox="0.502 0.57 51.85 64.249"><path paint-order="stroke fill markers" fill-rule="evenodd" d="M49.815 64.82H3.038a2.539 2.539 0 0 1-2.536-2.537V3.107A2.539 2.539 0 0 1 3.038.57h46.777a2.539 2.539 0 0 1 2.536 2.537v59.176a2.539 2.539 0 0 1-2.536 2.537zM3.038 1.134a1.975 1.975 0 0 0-1.973 1.973v59.176a1.975 1.975 0 0 0 1.973 1.973h46.777a1.975 1.975 0 0 0 1.973-1.973V3.107a1.975 1.975 0 0 0-1.973-1.973H3.038z"/></svg></svg><svg width="14" height="16" xmlns="http://www.w3.org/2000/svg" xmlns:xlink="http://www.w3.org/1999/xlink" xmlns:svgjs="http://svgjs.com/svgjs" viewBox="0.01 0 13.98 16" fill="#16213e" x="360" y="1135"><svg xmlns="http://www.w3.org/2000/svg" xmlns:xlink="http://www.w3.org/1999/xlink" width="14" height="16" viewBox="0.971 0.328 12.833 14.687"><path paint-order="stroke fill markers" fill-rule="evenodd" d="M12.535 15.015H2.24A1.27 1.27 0 0 1 .97 13.747V1.597c0-.7.568-1.268 1.268-1.269h10.296c.7 0 1.268.568 1.268 1.268v12.151c0 .7-.568 1.267-1.268 1.268z"/></svg></svg><svg width="14" height="16" xmlns="http://www.w3.org/2000/svg" xmlns:xlink="http://www.w3.org/1999/xlink" xmlns:svgjs="http://svgjs.com/svgjs" viewBox="0.01 0 13.98 16" fill="#ccc" x="380" y="1140"><svg xmlns="http://www.w3.org/2000/svg" xmlns:xlink="http://www.w3.org/1999/xlink" width="14" height="16" viewBox="0.978 0.964 12.833 14.687"><path paint-order="stroke fill markers" fill-rule="evenodd" d="M12.543 15.651H2.246a1.27 1.27 0 0 1-1.268-1.268V2.232c0-.7.568-1.267 1.268-1.268h10.297c.7 0 1.267.568 1.268 1.268v12.151c0 .7-.568 1.267-1.268 1.268z"/></svg></svg><svg width="14" height="15" xmlns="http://www.w3.org/2000/svg" xmlns:xlink="http://www.w3.org/1999/xlink" xmlns:svgjs="http://svgjs.com/svgjs" viewBox="0.447 0 13.107 15" fill="#1a1a2e" x="364" y="1158"><svg xmlns="http://www.w3.org/2000/svg" xmlns:xlink="http://www.w3.org/1999/xlink" width="14" height="15" viewBox="0.916 0.154 12.833 14.687"><path paint-order="stroke fill markers" fill-rule="evenodd" d="M12.48 14.84H2.184a1.27 1.27 0 0 1-1.268-1.268V1.422c0-.7.568-1.268 1.268-1.268H12.48c.7 0 1.268.568 1.269 1.268v12.15c-.001.7-.569 1.268-1.269 1.269z"/></svg></svg><svg width="52" height="65" xmlns="http://www.w3.org/2000/svg" xmlns:xlink="http://www.w3.org/1999/xlink" xmlns:svgjs="http://svgjs.com/svgjs" viewBox="0 0.283 52 64.435" fill="#3f3d56" x="426" y="1182"><svg xmlns="http://www.w3.org/2000/svg" xmlns:xlink="http://www.w3.org/1999/xlink" width="52" height="65" viewBox="0.003 0.419 51.85 64.249"><path paint-order="stroke fill markers" fill-rule="evenodd" d="M49.317 64.668H2.54a2.539 2.539 0 0 1-2.536-2.536V2.955A2.54 2.54 0 0 1 2.539.419h46.778a2.54 2.54 0 0 1 2.536 2.536v59.177a2.539 2.539 0 0 1-2.536 2.536zM2.54.983A1.975 1.975 0 0 0 .567 2.955v59.177a1.975 1.975 0 0 0 1.972 1.972h46.778a1.975 1.975 0 0 0 1.973-1.972V2.955A1.974 1.974 0 0 0 49.317.983H2.54z"/></svg></svg><svg width="20" height="3" xmlns="http://www.w3.org/2000/svg" xmlns:xlink="http://www.w3.org/1999/xlink" xmlns:svgjs="http://svgjs.com/svgjs" viewBox="0 0.269 20 2.462" fill="#16213e" x="442" y="1193"><svg xmlns="http://www.w3.org/2000/svg" xmlns:xlink="http://www.w3.org/1999/xlink" width="20" height="3" viewBox="0.77 0.268 18.317 2.254"><path paint-order="stroke fill markers" fill-rule="evenodd" d="M17.96 2.522H1.896a1.127 1.127 0 0 1 0-2.254h16.062a1.127 1.127 0 1 1 0 2.254z"/></svg></svg><svg width="35" height="4" xmlns="http://www.w3.org/2000/svg" xmlns:xlink="http://www.w3.org/1999/xlink" xmlns:svgjs="http://svgjs.com/svgjs" viewBox="0 0.843 35 2.314" fill="#ccc" x="434" y="1203"><svg xmlns="http://www.w3.org/2000/svg" xmlns:xlink="http://www.w3.org/1999/xlink" width="35" height="4" viewBox="0.879 0.976 34.097 2.254"><path paint-order="stroke fill markers" fill-rule="evenodd" d="M33.85 3.23H2.006a1.127 1.127 0 0 1 0-2.254h31.842a1.127 1.127 0 1 1 0 2.254z"/></svg></svg><svg width="35" height="4" xmlns="http://www.w3.org/2000/svg" xmlns:xlink="http://www.w3.org/1999/xlink" xmlns:svgjs="http://svgjs.com/svgjs" viewBox="0 0.843 35 2.314" fill="#ccc" x="434" y="1209"><svg xmlns="http://www.w3.org/2000/svg" xmlns:xlink="http://www.w3.org/1999/xlink" width="35" height="4" viewBox="0.879 0.894 34.097 2.254"><path paint-order="stroke fill markers" fill-rule="evenodd" d="M33.85 3.148H2.006a1.127 1.127 0 1 1 0-2.254h31.842a1.127 1.127 0 0 1 0 2.254z"/></svg></svg><svg width="35" height="4" xmlns="http://www.w3.org/2000/svg" xmlns:xlink="http://www.w3.org/1999/xlink" xmlns:svgjs="http://svgjs.com/svgjs" viewBox="0 0.843 35 2.314" fill="#ccc" x="434" y="1215"><svg xmlns="http://www.w3.org/2000/svg" xmlns:xlink="http://www.w3.org/1999/xlink" width="35" height="4" viewBox="0.879 0.811 34.097 2.254"><path paint-order="stroke fill markers" fill-rule="evenodd" d="M33.85 3.066H2.006a1.127 1.127 0 0 1 0-2.255h31.842a1.127 1.127 0 0 1 0 2.255z"/></svg></svg><svg width="35" height="3" xmlns="http://www.w3.org/2000/svg" xmlns:xlink="http://www.w3.org/1999/xlink" xmlns:svgjs="http://svgjs.com/svgjs" viewBox="0 0.343 35 2.314" fill="#ccc" x="434" y="1221"><svg xmlns="http://www.w3.org/2000/svg" xmlns:xlink="http://www.w3.org/1999/xlink" width="35" height="3" viewBox="0.879 0.729 34.097 2.254"><path paint-order="stroke fill markers" fill-rule="evenodd" d="M33.85 2.983H2.006a1.127 1.127 0 1 1 0-2.254h31.842a1.127 1.127 0 1 1 0 2.254z"/></svg></svg><svg width="35" height="3" xmlns="http://www.w3.org/2000/svg" xmlns:xlink="http://www.w3.org/1999/xlink" xmlns:svgjs="http://svgjs.com/svgjs" viewBox="0 0.343 35 2.314" fill="#ccc" x="434" y="1227"><svg xmlns="http://www.w3.org/2000/svg" xmlns:xlink="http://www.w3.org/1999/xlink" width="35" height="3" viewBox="0.879 0.647 34.097 2.254"><path paint-order="stroke fill markers" fill-rule="evenodd" d="M33.85 2.901H2.006a1.127 1.127 0 0 1 0-2.254h31.842a1.127 1.127 0 1 1 0 2.254z"/></svg></svg><svg width="35" height="3" xmlns="http://www.w3.org/2000/svg" xmlns:xlink="http://www.w3.org/1999/xlink" xmlns:svgjs="http://svgjs.com/svgjs" viewBox="0 0.343 35 2.314" fill="#ccc" x="434" y="1233"><svg xmlns="http://www.w3.org/2000/svg" xmlns:xlink="http://www.w3.org/1999/xlink" width="35" height="3" viewBox="0.879 0.564 34.097 2.254"><path paint-order="stroke fill markers" fill-rule="evenodd" d="M33.85 2.819H2.006a1.127 1.127 0 0 1 0-2.255h31.842a1.127 1.127 0 1 1 0 2.255z"/></svg></svg><svg width="52" height="65" xmlns="http://www.w3.org/2000/svg" xmlns:xlink="http://www.w3.org/1999/xlink" xmlns:svgjs="http://svgjs.com/svgjs" viewBox="0 0.283 52 64.434" fill="#3f3d56" x="275" y="1182"><svg xmlns="http://www.w3.org/2000/svg" xmlns:xlink="http://www.w3.org/1999/xlink" width="52" height="65" viewBox="0 0.419 51.85 64.249"><path paint-order="stroke fill markers" fill-rule="evenodd" d="M49.314 64.668H2.536A2.539 2.539 0 0 1 0 62.132V2.955A2.54 2.54 0 0 1 2.536.419h46.778a2.539 2.539 0 0 1 2.536 2.536v59.177a2.539 2.539 0 0 1-2.536 2.536zM2.536.983A1.975 1.975 0 0 0 .563 2.955v59.177a1.975 1.975 0 0 0 1.973 1.972h46.778a1.975 1.975 0 0 0 1.973-1.972V2.955A1.975 1.975 0 0 0 49.314.983H2.536z"/></svg></svg><svg width="18" height="3" xmlns="http://www.w3.org/2000/svg" xmlns:xlink="http://www.w3.org/1999/xlink" xmlns:svgjs="http://svgjs.com/svgjs" viewBox="0 0.259 18 2.483" fill="#3f3d56" x="301" y="1194"><svg xmlns="http://www.w3.org/2000/svg" xmlns:xlink="http://www.w3.org/1999/xlink" width="18" height="3" viewBox="0.678 0.136 16.344 2.254"><path paint-order="stroke fill markers" fill-rule="evenodd" d="M15.895 2.39H1.805a1.127 1.127 0 0 1 0-2.254h14.09a1.127 1.127 0 0 1 0 2.254z"/></svg></svg><svg width="18" height="3" xmlns="http://www.w3.org/2000/svg" xmlns:xlink="http://www.w3.org/1999/xlink" xmlns:svgjs="http://svgjs.com/svgjs" viewBox="0 0.259 18 2.483" fill="#3f3d56" x="301" y="1200"><svg xmlns="http://www.w3.org/2000/svg" xmlns:xlink="http://www.w3.org/1999/xlink" width="18" height="3" viewBox="0.678 0.054 16.344 2.254"><path paint-order="stroke fill markers" fill-rule="evenodd" d="M15.895 2.308H1.805a1.127 1.127 0 1 1 0-2.254h14.09a1.127 1.127 0 1 1 0 2.254z"/></svg></svg><svg width="13" height="16" xmlns="http://www.w3.org/2000/svg" xmlns:xlink="http://www.w3.org/1999/xlink" xmlns:svgjs="http://svgjs.com/svgjs" viewBox="0 0.561 13 14.878" fill="#16213e" x="284" y="1190"><svg xmlns="http://www.w3.org/2000/svg" xmlns:xlink="http://www.w3.org/1999/xlink" width="13" height="16" viewBox="0.011 0.99 12.833 14.687"><path paint-order="stroke fill markers" fill-rule="evenodd" d="M11.576 15.678H1.279A1.27 1.27 0 0 1 .011 14.41V2.259C.011 1.559.58.99 1.28.99h10.297c.7.001 1.267.569 1.268 1.269v12.15c0 .7-.568 1.268-1.268 1.269z"/></svg></svg><svg width="35" height="3" xmlns="http://www.w3.org/2000/svg" xmlns:xlink="http://www.w3.org/1999/xlink" xmlns:svgjs="http://svgjs.com/svgjs" viewBox="0 0.343 35 2.314" fill="#ccc" x="283" y="1212"><svg xmlns="http://www.w3.org/2000/svg" xmlns:xlink="http://www.w3.org/1999/xlink" width="35" height="3" viewBox="0.828 0.171 34.097 2.254"><path paint-order="stroke fill markers" fill-rule="evenodd" d="M33.798 2.425H1.955a1.127 1.127 0 1 1 0-2.254h31.843a1.127 1.127 0 0 1 0 2.254z"/></svg></svg><svg width="35" height="3" xmlns="http://www.w3.org/2000/svg" xmlns:xlink="http://www.w3.org/1999/xlink" xmlns:svgjs="http://svgjs.com/svgjs" viewBox="0 0.343 35 2.314" fill="#ccc" x="283" y="1218"><svg xmlns="http://www.w3.org/2000/svg" xmlns:xlink="http://www.w3.org/1999/xlink" width="35" height="3" viewBox="0.828 0.088 34.097 2.254"><path paint-order="stroke fill markers" fill-rule="evenodd" d="M33.798 2.343H1.955a1.127 1.127 0 0 1 0-2.255h31.843a1.127 1.127 0 0 1 0 2.255z"/></svg></svg><svg width="35" height="3" xmlns="http://www.w3.org/2000/svg" xmlns:xlink="http://www.w3.org/1999/xlink" xmlns:svgjs="http://svgjs.com/svgjs" viewBox="0 0.343 35 2.314" fill="#ccc" x="283" y="1224"><svg xmlns="http://www.w3.org/2000/svg" xmlns:xlink="http://www.w3.org/1999/xlink" width="35" height="3" viewBox="0.828 0.006 34.097 2.254"><path paint-order="stroke fill markers" fill-rule="evenodd" d="M33.798 2.26H1.955a1.127 1.127 0 1 1 0-2.254h31.843a1.127 1.127 0 1 1 0 2.255z"/></svg></svg><svg width="35" height="4" xmlns="http://www.w3.org/2000/svg" xmlns:xlink="http://www.w3.org/1999/xlink" xmlns:svgjs="http://svgjs.com/svgjs" viewBox="0 0.843 35 2.314" fill="#ccc" x="283" y="1229"><svg xmlns="http://www.w3.org/2000/svg" xmlns:xlink="http://www.w3.org/1999/xlink" width="35" height="4" viewBox="0.828 0.924 34.097 2.254"><path paint-order="stroke fill markers" fill-rule="evenodd" d="M33.798 3.178H1.955a1.127 1.127 0 0 1 0-2.254h31.843a1.127 1.127 0 0 1 0 2.254z"/></svg></svg><svg width="35" height="4" xmlns="http://www.w3.org/2000/svg" xmlns:xlink="http://www.w3.org/1999/xlink" xmlns:svgjs="http://svgjs.com/svgjs" viewBox="0 0.843 35 2.314" fill="#ccc" x="283" y="1235"><svg xmlns="http://www.w3.org/2000/svg" xmlns:xlink="http://www.w3.org/1999/xlink" width="35" height="4" viewBox="0.828 0.841 34.097 2.254"><path paint-order="stroke fill markers" fill-rule="evenodd" d="M33.798 3.096H1.955a1.127 1.127 0 0 1 0-2.255h31.843a1.127 1.127 0 1 1 0 2.255z"/></svg></svg><svg width="14" height="16" xmlns="http://www.w3.org/2000/svg" xmlns:xlink="http://www.w3.org/1999/xlink" xmlns:svgjs="http://svgjs.com/svgjs" viewBox="0.01 0 13.98 16" fill="#e6e6e6" x="341" y="1267"><svg xmlns="http://www.w3.org/2000/svg" xmlns:xlink="http://www.w3.org/1999/xlink" width="14" height="16" viewBox="0.998 0.547 12.833 14.687"><path paint-order="stroke fill markers" fill-rule="evenodd" d="M.998 13.966V1.816c0-.7.568-1.268 1.268-1.269h10.297c.7.001 1.267.568 1.268 1.268v12.151c-.001.7-.568 1.267-1.268 1.268H2.266a1.27 1.27 0 0 1-1.268-1.268z"/></svg></svg><svg width="14" height="16" xmlns="http://www.w3.org/2000/svg" xmlns:xlink="http://www.w3.org/1999/xlink" xmlns:svgjs="http://svgjs.com/svgjs" viewBox="0.01 0 13.98 16" fill="#16213e" x="345" y="1263"><svg xmlns="http://www.w3.org/2000/svg" xmlns:xlink="http://www.w3.org/1999/xlink" width="14" height="16" viewBox="0.707 0.501 12.833 14.687"><path paint-order="stroke fill markers" fill-rule="evenodd" d="M.707 13.92V1.77c0-.7.568-1.268 1.268-1.269h10.297c.7 0 1.267.568 1.268 1.268V13.92c-.001.7-.568 1.267-1.268 1.268H1.975A1.27 1.27 0 0 1 .707 13.92z"/></svg></svg><svg width="10" height="29" xmlns="http://www.w3.org/2000/svg" xmlns:xlink="http://www.w3.org/1999/xlink" xmlns:svgjs="http://svgjs.com/svgjs" viewBox="0.588 0 8.825 29" fill="#a0616a" x="387" y="1245"><svg xmlns="http://www.w3.org/2000/svg" xmlns:xlink="http://www.w3.org/1999/xlink" width="10" height="29" viewBox="0.864 0.079 8.635 28.376"><path paint-order="stroke fill markers" fill-rule="evenodd" d="M4.864 28.032a3.062 3.062 0 0 1-.808-4.623L.864.079l6.649.326 1.043 22.756a3.078 3.078 0 0 1-3.691 4.871z"/></svg></svg><svg width="15" height="21" xmlns="http://www.w3.org/2000/svg" xmlns:xlink="http://www.w3.org/1999/xlink" xmlns:svgjs="http://svgjs.com/svgjs" viewBox="0 0.12 15 20.761" fill="#ccc" x="381" y="1228"><svg xmlns="http://www.w3.org/2000/svg" xmlns:xlink="http://www.w3.org/1999/xlink" width="15" height="21" viewBox="0.6 0.889 14.125 19.55"><path paint-order="stroke fill markers" fill-rule="evenodd" d="M14.425 17.717c-.136.16-.31.284-.507.358l-5.975 2.28a1.255 1.255 0 0 1-1.595-.662L1.056 7.8a4.97 4.97 0 0 1-.244-3.517A4.835 4.835 0 0 1 4.492.983a4.608 4.608 0 0 1 1.986.028 4.815 4.815 0 0 1 3.46 3.008l4.706 12.44c.161.427.077.91-.219 1.258z"/></svg></svg><svg width="7" height="17" xmlns="http://www.w3.org/2000/svg" xmlns:xlink="http://www.w3.org/1999/xlink" xmlns:svgjs="http://svgjs.com/svgjs" viewBox="0.511 0 5.978 17" fill="#a0616a" x="358" y="1313"><svg xmlns="http://www.w3.org/2000/svg" xmlns:xlink="http://www.w3.org/1999/xlink" width="7" height="17" viewBox="0.657 0.953 5.633 16.02"><path paint-order="stroke fill markers" fill-rule="evenodd" d="M6.29 16.974H2.156L.657.954l5.634.075v15.945z"/></svg></svg><svg width="14" height="6" xmlns="http://www.w3.org/2000/svg" xmlns:xlink="http://www.w3.org/1999/xlink" xmlns:svgjs="http://svgjs.com/svgjs" viewBox="0 0.295 14 5.409" fill="#2f2e41" x="352" y="1328"><svg xmlns="http://www.w3.org/2000/svg" xmlns:xlink="http://www.w3.org/1999/xlink" width="14" height="6" viewBox="0.184 0.793 12.992 5.02"><path paint-order="stroke fill markers" fill-rule="evenodd" d="M5.203.793h7.973v5.02H.184a5.02 5.02 0 0 1 5.02-5.02z"/></svg></svg><svg width="7" height="16" xmlns="http://www.w3.org/2000/svg" xmlns:xlink="http://www.w3.org/1999/xlink" xmlns:svgjs="http://svgjs.com/svgjs" viewBox="0.439 0 6.122 16" fill="#a0616a" x="377" y="1314"><svg xmlns="http://www.w3.org/2000/svg" xmlns:xlink="http://www.w3.org/1999/xlink" width="7" height="16" viewBox="0.409 0.029 6.101 15.945"><path paint-order="stroke fill markers" fill-rule="evenodd" d="M6.51 15.974H2.376L.409.029h6.102L6.51 15.974z"/></svg></svg><svg width="14" height="6" xmlns="http://www.w3.org/2000/svg" xmlns:xlink="http://www.w3.org/1999/xlink" xmlns:svgjs="http://svgjs.com/svgjs" viewBox="0 0.295 14 5.409" fill="#2f2e41" x="371" y="1328"><svg xmlns="http://www.w3.org/2000/svg" xmlns:xlink="http://www.w3.org/1999/xlink" width="14" height="6" viewBox="0.403 0.793 12.992 5.02"><path paint-order="stroke fill markers" fill-rule="evenodd" d="M5.423.793h7.973v5.02H.403a5.02 5.02 0 0 1 5.02-5.02z"/></svg></svg><svg width="30" height="60" xmlns="http://www.w3.org/2000/svg" xmlns:xlink="http://www.w3.org/1999/xlink" xmlns:svgjs="http://svgjs.com/svgjs" viewBox="0.233 0 29.534 60" fill="#2f2e41" x="357" y="1265"><svg xmlns="http://www.w3.org/2000/svg" xmlns:xlink="http://www.w3.org/1999/xlink" width="30" height="60" viewBox="0.439 0.015 29.185 59.29"><path paint-order="stroke fill markers" fill-rule="evenodd" d="M27.03 59.301l-6.493-.48a1.52 1.52 0 0 1-1.403-1.44l-1.448-29.92a1.18 1.18 0 0 0-2.335-.18l-6.04 29.473a1.52 1.52 0 0 1-1.607 1.208l-5.869-.47A1.517 1.517 0 0 1 .446 55.83L5.891 1.381A1.517 1.517 0 0 1 7.723.049L28.43 4.55a1.521 1.521 0 0 1 1.194 1.511l-.964 51.755a1.518 1.518 0 0 1-1.63 1.485z"/></svg></svg><svg width="17" height="17" xmlns="http://www.w3.org/2000/svg" xmlns:xlink="http://www.w3.org/1999/xlink" xmlns:svgjs="http://svgjs.com/svgjs" fill="#a0616a" x="370" y="1204"><svg xmlns="http://www.w3.org/2000/svg" xmlns:xlink="http://www.w3.org/1999/xlink" width="17" height="17" viewBox="0.068 0.292 16.564 16.564"><path paint-order="stroke fill markers" fill-rule="evenodd" d="M8.35 16.856A8.274 8.274 0 0 1 .068 8.574 8.274 8.274 0 0 1 8.35.292a8.274 8.274 0 0 1 8.281 8.282 8.274 8.274 0 0 1-8.281 8.282z"/></svg></svg><svg width="28" height="52" xmlns="http://www.w3.org/2000/svg" xmlns:xlink="http://www.w3.org/1999/xlink" xmlns:svgjs="http://svgjs.com/svgjs" viewBox="0 0.284 28 51.432" fill="#ccc" x="363" y="1223"><svg xmlns="http://www.w3.org/2000/svg" xmlns:xlink="http://www.w3.org/1999/xlink" width="28" height="52" viewBox="0.039 0.463 27.784 51.035"><path paint-order="stroke fill markers" fill-rule="evenodd" d="M2.5 47.58a7.406 7.406 0 0 1-2.46-5.688C.04 29.99 10.345 3.396 10.668 2.566c.031-.2.303-.286 1.73-1.25C13.824.354 15.88.205 18.513.877c.545.14.968.571 1.096 1.12l.49.707c.086.363.34.665.683.811 2.123.894 8.868 5.017 6.57 20.532-2.136 14.413-3.002 22.889-3.276 25.864a1.514 1.514 0 0 1-1.372 1.371c-1.041.093-2.827.217-4.954.217-4.93 0-11.692-.665-15.25-3.918z"/></svg></svg><svg width="19" height="28" xmlns="http://www.w3.org/2000/svg" xmlns:xlink="http://www.w3.org/1999/xlink" xmlns:svgjs="http://svgjs.com/svgjs" viewBox="0.278 0 18.445 28" fill="#a0616a" x="355" y="1240"><svg xmlns="http://www.w3.org/2000/svg" xmlns:xlink="http://www.w3.org/1999/xlink" width="19" height="28" viewBox="0.292 0.73 17.905 27.181"><path paint-order="stroke fill markers" fill-rule="evenodd" d="M.604 26.17a3.061 3.061 0 0 1 1.905-4.29L12.859.73l5.338 3.975L6.384 24.183a3.078 3.078 0 0 1-5.78 1.987z"/></svg></svg><svg width="13" height="21" xmlns="http://www.w3.org/2000/svg" xmlns:xlink="http://www.w3.org/1999/xlink" xmlns:svgjs="http://svgjs.com/svgjs" viewBox="0.226 0 12.549 21" fill="#ccc" x="365" y="1225"><svg xmlns="http://www.w3.org/2000/svg" xmlns:xlink="http://www.w3.org/1999/xlink" width="13" height="21" viewBox="0.955 0.667 11.863 19.852"><path paint-order="stroke fill markers" fill-rule="evenodd" d="M8.782 20.472a1.249 1.249 0 0 1-.622.015l-6.232-1.435a1.255 1.255 0 0 1-.955-1.44L3.206 4.788a4.97 4.97 0 0 1 1.758-3.056 4.834 4.834 0 0 1 4.893-.689c.62.254 1.178.64 1.634 1.13a4.815 4.815 0 0 1 1.197 4.426L9.665 19.55a1.258 1.258 0 0 1-.883.923z"/></svg></svg><svg width="20" height="20" xmlns="http://www.w3.org/2000/svg" xmlns:xlink="http://www.w3.org/1999/xlink" xmlns:svgjs="http://svgjs.com/svgjs" viewBox="0 0.161 20 19.677" fill="#2f2e41" x="368" y="1202"><svg xmlns="http://www.w3.org/2000/svg" xmlns:xlink="http://www.w3.org/1999/xlink" width="20" height="20" viewBox="0.064 0.194 19.22 18.909"><path paint-order="stroke fill markers" fill-rule="evenodd" d="M8.41 18.056a3.568 3.568 0 0 1-.957-3.165c.289-1.51.459-2.498.49-2.858.11-1.23-1.133-2.226-2.363-2.384a2.61 2.61 0 0 0-.12-.013l.094.09c.234.22.524.493.455.775-.041.17-.197.29-.474.368-1.924.538-3.406.044-4.664-1.557a3.716 3.716 0 0 1-.71-1.55c-.45-2.21.75-4.095 1.837-5.286C2.894 1.494 4.346.301 6.177.2 7.6.12 9.294.94 9.8 2.416a2.752 2.752 0 0 1 2.145-1.21c.973-.02 1.93.246 2.751.766 4.016 2.3 5.742 7.78 3.769 11.966-1.241 2.633-3.93 4.593-7.017 5.116a3.41 3.41 0 0 1-3.038-.998z"/></svg></svg><svg width="67" height="1" xmlns="http://www.w3.org/2000/svg" xmlns:xlink="http://www.w3.org/1999/xlink" xmlns:svgjs="http://svgjs.com/svgjs" viewBox="0 0.16 67 0.68" fill="#3f3d56" x="337" y="1333"><svg xmlns="http://www.w3.org/2000/svg" width="67" height="1" viewBox="0.238 0.325 66.426 0.674"><path paint-order="stroke fill markers" fill-rule="evenodd" d="M.575 1h65.752a.337.337 0 1 0 0-.675H.575a.337.337 0 0 0 0 .675z"/></svg></svg></svg>