<svg xmlns="http://www.w3.org/2000/svg" viewBox="0 0 64 64" width="64" height="64">
	<style>
		tspan { white-space:pre }
		.shp0 { fill: #ffffff } 
	</style>
	<path id="Layer" class="shp0" d="M43.3 25.93L42.6 24.05C41.97 24.29 41.34 24.5 40.71 24.69L41.29 26.61C41.96 26.4 42.64 26.18 43.3 25.93L43.3 25.93Z" />
	<path id="Layer" class="shp0" d="M37 30.28L37 27.59C37.74 27.47 38.49 27.33 39.23 27.16L38.77 25.21C37.81 25.43 36.83 25.61 35.87 25.74L35 25.85L35 30.28C35 30.55 35.01 30.82 35.02 31.08L37.02 30.98C37.01 30.75 37 30.52 37 30.28L37 30.28Z" />
	<path id="Layer" fill-rule="evenodd" class="shp0" d="M25 19C25 22.31 22.31 25 19 25C15.69 25 13 22.31 13 19C13 15.69 15.69 13 19 13C22.31 13 25 15.69 25 19ZM23 19C23 16.79 21.21 15 19 15C16.79 15 15 16.79 15 19C15 21.21 16.79 23 19 23C21.21 23 23 21.21 23 19Z" />
	<path id="Layer" fill-rule="evenodd" class="shp0" d="M45.48 18.79C49.31 20.86 53.64 21.97 58.01 22L59 22.01L59 30.28C59 38.96 53.51 46.78 45.34 49.73L45 49.86L44.66 49.73C36.49 46.78 31 38.96 31 30.28L31 22L31.99 22C36.36 21.97 40.7 20.86 44.52 18.79L45 18.53L45.48 18.79ZM57 23.98C52.82 23.8 48.71 22.71 45 20.8C41.3 22.71 37.18 23.8 33 23.98L33 30.28C33 38 37.81 44.96 45 47.73C52.19 44.96 57 38 57 30.28L57 23.98Z" />
	<path id="Layer" fill-rule="evenodd" class="shp0" d="M43 33.59L51 25.59L55.41 30L43 42.41L36.59 36L41 31.59L43 33.59ZM51 28.41L43 36.41L41 34.41L39.41 36L43 39.59L52.59 30L51 28.41Z" />
	<path id="Layer" fill-rule="evenodd" class="shp0" d="M63 30.28C63 35.72 61.18 40.87 58.05 45.05L61.41 57.39L56.48 56.15L52.74 62.38L49.39 52.32C48.08 52.98 46.71 53.54 45.28 53.96L45 54.04L44.72 53.96C43.28 53.54 41.92 52.98 40.61 52.32L37.26 62.38L33.52 56.15L28.59 57.38L31.95 45.05C29.4 41.65 27.74 37.59 27.2 33.27L26.74 32.98C25.69 33.57 24.57 34.03 23.41 34.37L22.79 37L15.21 37L14.59 34.37C13.43 34.03 12.31 33.57 11.26 32.98L8.95 34.41L3.59 29.05L5.02 26.74C4.43 25.69 3.97 24.57 3.63 23.41L1 22.79L1 15.21L3.63 14.59C3.97 13.43 4.43 12.31 5.02 11.26L3.59 8.95L8.95 3.59L11.26 5.02C12.31 4.43 13.43 3.97 14.59 3.64L15.21 1L22.79 1L23.41 3.64C24.57 3.97 25.69 4.43 26.74 5.02L29.05 3.59L34.41 8.95L32.98 11.26C33.57 12.31 34.03 13.43 34.36 14.59L37 15.21L37 17.4C39.63 16.79 42.13 15.71 44.41 14.19L44.96 13.82L45.55 14.16C49.33 16.68 53.68 18 58.17 18L63 18L63 30.28ZM27.02 30.8C27.02 30.63 27 30.46 27 30.28L27 27.93C24.82 29.88 21.98 31 19 31C12.38 31 7 25.62 7 19C7 12.38 12.38 7 19 7C25.28 7 30.44 11.85 30.95 18L31.83 18C32.9 18 33.95 17.92 35 17.77L35 16.79L32.73 16.26L32.58 15.66C32.24 14.28 31.7 12.97 30.96 11.76L30.64 11.23L31.87 9.25L28.75 6.12L26.76 7.35L26.24 7.04C25.03 6.3 23.71 5.75 22.34 5.42L21.74 5.27L21.21 3L16.79 3L16.26 5.27L15.66 5.42C14.28 5.75 12.97 6.3 11.76 7.04L11.23 7.35L9.25 6.12L6.12 9.25L7.35 11.23L7.04 11.76C6.3 12.97 5.75 14.28 5.42 15.66L5.27 16.26L3 16.79L3 21.21L5.27 21.74L5.42 22.34C5.76 23.72 6.3 25.03 7.04 26.24L7.35 26.77L6.13 28.75L9.25 31.88L11.23 30.65L11.76 30.96C12.97 31.7 14.28 32.25 15.66 32.58L16.26 32.73L16.79 35L21.21 35L21.74 32.73L22.34 32.58C23.72 32.25 25.03 31.7 26.24 30.96L26.77 30.65L27.02 30.8ZM28.95 18C28.45 12.95 24.18 9 19 9C13.49 9 9 13.49 9 19C9 24.51 13.49 29 19 29C22.15 29 25.11 27.5 27 24.98L27 18L28.95 18ZM38.84 51.33C36.85 50.11 35.07 48.62 33.51 46.92L31.41 54.62L34.48 53.85L36.74 57.62L38.84 51.33ZM56.49 46.92C54.94 48.62 53.15 50.11 51.16 51.33L53.26 57.62L55.52 53.85L58.59 54.62L56.49 46.92ZM61 20L58.17 20C53.49 20 48.95 18.69 45 16.19C41.03 18.69 36.5 20 31.83 20L29 20L29 30.28C29 40.17 35.56 49.05 45 51.96C54.44 49.05 61 40.17 61 30.28L61 20Z" />
</svg>