<svg xmlns="http://www.w3.org/2000/svg" viewBox="0 0 512 512" width="512" height="512">
	<style>
		tspan { white-space:pre }
		.shp0 { fill: #ffffff } 
	</style>
	<g id="Layer">
		<g id="Layer">
			<path id="Layer" class="shp0" d="M366 396C360.48 396 356 400.48 356 406C356 411.52 360.48 416 366 416C371.52 416 376 411.52 376 406C376 400.48 371.52 396 366 396Z" />
		</g>
	</g>
	<g id="Layer">
		<g id="Layer">
			<path id="Layer" fill-rule="evenodd" class="shp0" d="M486 502C486 507.52 481.52 512 476 512L36 512C30.48 512 26 507.52 26 502C26 440.27 66.11 382.09 121.38 363.66L168.91 347.82L185.96 313.71C184.45 312.18 182.97 310.6 181.56 308.97C174.73 301.14 169.12 292.42 164.78 283L156 283C139.46 283 126 269.54 126 253L126 241.28C114.36 237.15 106 226.04 106 213L106 150C106 67.1 173.08 0 256 0C338.71 0 406 67.29 406 150L406 213C406 229.54 392.54 243 376 243L357.8 243L355.67 255.76C352.07 277.35 341.4 298.05 326.03 313.7L343.09 347.82L390.62 363.66C445.89 382.09 486 440.27 486 502ZM386 160L365.71 160C365.69 160.57 365.67 161.14 365.65 161.72C364.97 182.36 363.28 203.31 360.74 223L376 223C381.51 223 386 218.51 386 213L386 160ZM136 223L151.26 223C148.78 203.74 147.11 183.33 146.41 163.26C146.41 163.26 146.41 163.26 146.41 163.25C146.41 163.22 146.41 163.18 146.41 163.15C146.37 162.09 146.33 161.04 146.3 160L126 160L126 213C126 218.51 130.49 223 136 223L136 223ZM157.81 263C157.23 260.6 156.73 258.18 156.33 255.76L154.2 243L146 243L146 253C146 258.51 150.49 263 156 263L157.81 263ZM247.05 40L264.95 40C320.29 40 365.26 84.77 365.98 140L385.62 140C380.5 72.97 324.32 20 256 20C187.38 20 131.44 72.98 126.38 140L146.02 140C146.74 84.77 191.71 40 247.05 40ZM166.44 132.91C183.44 112.24 209.14 100 236 100C238.65 100 241.19 101.05 243.07 102.93C267.35 127.21 299.43 143.25 333.41 148.1L345.92 149.89C345.92 149.85 345.92 149.82 345.92 149.79C345.98 147.3 346 144.56 346 141.41C346.03 96.65 309.76 60 264.95 60L247.05 60C205.05 60 170.63 92.19 166.44 132.91ZM207.7 263C211.72 251.61 222.67 243 236 243L256 243C272.54 243 286 256.46 286 273C286 289.58 272.58 303 256 303L236 303C222.96 303 211.85 294.64 207.72 283L187.33 283C198.9 302.38 216.81 315.89 236.35 320.78C249.22 323.99 262.78 323.99 275.66 320.78C306.95 312.96 330.65 284.23 335.95 252.47C337.79 241.33 338.51 237.34 339.43 231.14C339.43 231.13 339.43 231.13 339.43 231.12C342.31 211.85 344.32 190.89 345.31 170L330.59 167.9C293.79 162.64 258.97 145.73 232.05 120.11C211.59 121.29 192.36 131.53 180 148L166.54 165.95C167.81 197.35 173.53 246.35 178.54 263L207.7 263ZM254.68 360.54L272.35 341.85C266.94 342.74 261.47 343.2 256 343.2C249.01 343.2 242.02 342.46 235.16 341.02L254.68 360.54ZM198.74 332.88L186.83 356.7C192.98 374.51 200.49 391.91 209.22 408.62L240.94 375.08L198.74 332.88ZM268.83 374.69L302.78 408.64C311.5 391.94 319.01 374.54 325.17 356.7L311.57 329.49L268.83 374.69ZM236 283L256 283C261.52 283 266 278.52 266 273C266 267.49 261.51 263 256 263L236 263C230.48 263 226 267.48 226 273C226 278.51 230.49 283 236 283ZM237.99 492L225.69 472.25C215.71 458.9 206.5 444.84 198.32 430.45C198.32 430.45 198.31 430.45 198.31 430.45C198.3 430.42 198.28 430.38 198.26 430.35C187.06 410.66 177.51 389.93 169.8 368.61L127.7 382.64C83.33 397.43 50.36 442.46 46.4 492L237.99 492ZM270.05 460.6C278.15 449.79 285.73 438.45 292.66 426.8L255.08 389.23L219.42 426.94C226.3 438.5 233.85 449.8 241.95 460.6C242.12 460.83 242.29 461.07 242.44 461.31L256 483.09C270.25 460.22 269.56 461.25 270.05 460.6ZM465.6 492C461.64 442.46 428.67 397.43 384.3 382.64L342.2 368.61C334.55 389.77 325.09 410.32 314.04 429.82C314.03 429.83 314.03 429.84 314.02 429.85C313.97 429.94 313.93 430.03 313.88 430.12C305.61 444.68 296.34 458.85 286.31 472.25L274.01 492L465.6 492Z" />
		</g>
	</g>
	<g id="Layer">
		<g id="Layer">
			<path id="Layer" class="shp0" d="M435.55 451.53C428.86 438.15 419.07 426.27 407.24 417.16C402.86 413.79 396.58 414.61 393.21 418.99C389.85 423.37 390.66 429.65 395.04 433.02C404.5 440.29 412.31 449.78 417.65 460.47C420.13 465.42 426.14 467.41 431.07 464.95C436.01 462.48 438.01 456.47 435.55 451.53Z" />
		</g>
	</g>
	<g id="Layer">
	</g>
	<g id="Layer">
	</g>
	<g id="Layer">
	</g>
	<g id="Layer">
	</g>
	<g id="Layer">
	</g>
	<g id="Layer">
	</g>
	<g id="Layer">
	</g>
	<g id="Layer">
	</g>
	<g id="Layer">
	</g>
	<g id="Layer">
	</g>
	<g id="Layer">
	</g>
	<g id="Layer">
	</g>
	<g id="Layer">
	</g>
	<g id="Layer">
	</g>
	<g id="Layer">
	</g>
</svg>